<svg enable-background="new 0 0 140 97.3" viewBox="0 0 140 97.3" xmlns="http://www.w3.org/2000/svg"><g clip-rule="evenodd" fill-rule="evenodd"><path d="m27.2 74v-22h23.3l2.5 3.3 2.6-3.3h84.4v20.5s-2.2 1.5-4.8 1.5h-46.7l-2.8-3.5v3.5h-9.2v-5.9s-1.3.8-4 .8h-3.1v5.1h-14l-2.5-3.3-2.6 3.3z" fill="#fff"/><path d="m0 35.5 5.2-12.2h9.1l3 6.9v-6.9h11.3l1.8 5 1.7-5h50.6v2.5s2.7-2.5 7-2.5l16.4.1 2.9 6.8v-6.8h9.4l2.6 3.9v-3.9h9.5v22h-9.5l-2.5-3.9v3.9h-13.9l-1.4-3.5h-3.7l-1.4 3.5h-9.4c-3.8 0-6.2-2.4-6.2-2.4v2.4h-14l-2.8-3.5v3.5h-52.7l-1.4-3.5h-3.7l-1.4 3.5h-6.5z" fill="#fff"/><g fill="#016fd0"><path d="m7.1 26-7.1 16.4h4.6l1.3-3.3h7.6l1.3 3.3h4.7l-7-16.4zm2.6 3.8 2.3 5.8h-4.6z"/><path d="m20 42.4v-16.4h6.6l3.8 10.6 3.7-10.6h6.5v16.4h-4.1v-12.1l-4.4 12.1h-3.6l-4.4-12.1v12.1z"/><path d="m43.4 42.4v-16.4h13.4v3.6h-9.2v2.9h9v3.4h-9v3h9.2v3.5z"/><path d="m59.2 26v16.5h4.1v-5.8h1.7l4.9 5.8h5l-5.4-6.1c2.2-.2 4.5-2.1 4.5-5.1 0-3.5-2.7-5.3-5.8-5.3zm4.1 3.7h4.7c1.1 0 1.9.9 1.9 1.7 0 1.1-1.1 1.7-1.9 1.7h-4.8z"/><path d="m80 42.4h-4.2v-16.4h4.2z"/><path d="m90 42.4h-.9c-4.4 0-7.1-3.5-7.1-8.2 0-4.8 2.6-8.3 8.2-8.3h4.5v3.9h-4.7c-2.2 0-3.8 1.8-3.8 4.4 0 3.2 1.8 4.5 4.4 4.5h1.1z"/><path d="m98.9 26-7.1 16.5h4.6l1.3-3.3h7.6l1.3 3.3h4.7l-7-16.5zm2.6 3.8 2.3 5.8h-4.6z"/><path d="m111.8 42.4v-16.4h5.3l6.7 10.3v-10.3h4.1v16.4h-5.1l-6.8-10.6v10.6z"/><path d="m30 71.2v-16.4h13.4v3.6h-9.3v2.9h9.1v3.4h-9.1v3h9.3v3.5z"/><path d="m95.8 71.2v-16.4h13.4v3.6h-9.3v2.9h9v3.4h-9v3h9.3v3.5z"/><path d="m43.9 71.2 6.6-8.1-6.7-8.3h5.2l4 5.1 4-5.1h4.9l-6.6 8.2 6.6 8.2h-5.2l-3.9-5-3.8 5z"/><path d="m62.4 54.8v16.5h4.2v-5.3h4.3c3.7 0 6.4-1.9 6.4-5.7 0-3.1-2.2-5.5-5.9-5.5zm4.2 3.7h4.6c1.2 0 2 .7 2 1.9 0 1.1-.8 1.9-2 1.9h-4.5v-3.8z"/><path d="m79.1 54.8v16.5h4.1v-5.8h1.8l4.9 5.8h5l-5.4-6.1c2.2-.2 4.5-2.1 4.5-5.1 0-3.5-2.7-5.3-5.8-5.3zm4.2 3.6h4.7c1.1 0 1.9.9 1.9 1.7 0 1.1-1.1 1.7-1.9 1.7h-4.8v-3.4z"/><path d="m111.1 71.2v-3.6h8.2c1.2 0 1.7-.7 1.7-1.4s-.5-1.4-1.7-1.4h-3.7c-3.2 0-5-2-5-4.9 0-2.6 1.6-5.2 6.5-5.2h8l-1.7 3.7h-6.9c-1.3 0-1.7.7-1.7 1.4s.5 1.4 1.5 1.4h3.9c3.6 0 5.2 2 5.2 4.7 0 2.9-1.7 5.2-5.4 5.2z"/><path d="m126.2 71.2v-3.6h7.9c1.2 0 1.7-.7 1.7-1.4s-.5-1.4-1.7-1.4h-3.4c-3.2 0-5-2-5-4.9 0-2.6 1.6-5.2 6.5-5.2h7.9l-1.7 3.7h-6.8c-1.3 0-1.7.7-1.7 1.4s.5 1.4 1.5 1.4h3.5c3.6 0 5.2 2 5.2 4.7 0 2.9-1.7 5.2-5.4 5.2z"/></g></g></svg>