<svg enable-background="new 0 0 117.1 81.4" viewBox="0 0 117.1 81.4" xmlns="http://www.w3.org/2000/svg"><g clip-rule="evenodd" fill="#fff" fill-rule="evenodd"><path d="m110.4 50.3h-1.8-1.8l-6.5 13.7h3.6l1.4-3.1h3.4 3.4l1.5 3.1h3.7zm-1.8 8.3h-2.3l2.2-5.1.1.1 2.2 5.1h-2.2z"/><path d="m11 56.7c.7-.3 1.3-.7 1.7-1.2.5-.6.7-1.1.7-1.8 0-.6-.2-1.1-.5-1.6-.4-.5-.8-.8-1.3-1.1-.6-.4-1.1-.6-1.8-.7s-1.7-.1-3-.1h-6.8v13.8h5.8.9c1.6 0 2.6 0 3.1-.1.9-.1 1.7-.3 2.3-.7s1-.8 1.4-1.4.6-1.2.6-1.8c0-.8-.3-1.5-.8-2.2-.6-.4-1.3-.8-2.3-1.1zm-7.5-4.1h2 1.3 1.6c.6.1.9.2 1.2.5s.5.7.5 1c0 .5-.2.8-.5 1.1-.4.3-.8.4-1.4.5-.3 0-.7 0-1.4.1-.3 0-.7 0-1 0h-2.3zm6.6 8.5c-.3.3-.7.5-1.2.6-.3 0-1 0-2.2 0-.1 0-.1 0-.2 0h-3v-3.7h2.7.6c1.2 0 2.1.1 2.4.2.5.2.8.4 1.1.7.2.3.3.7.3 1 0 .5-.1.9-.5 1.2z"/><path d="m20.4 57.9h8.4v-2.2h-8.4v-3.1h9.1v-2.3h-12.5v13.7h12.8v-2.3h-9.4z"/><path d="m43.8 59.2c-.5-.5-1-.8-1.8-1.2 1.5-.2 2.5-.6 3.3-1.2.7-.7 1.1-1.6 1.1-2.6 0-.7-.2-1.5-.7-2.2s-1.1-1-1.9-1.3-2.2-.4-3.9-.4h-.4-6.8v13.7h3.5v-5.7h.7c.7 0 1.3 0 1.7.1.4.2.7.4 1 .7.4.3.9.9 1.8 2l2.4 3h4.1l-2.1-2.6c-.9-1.2-1.5-2-2-2.3zm-4.3-3.1c-.3 0-.6 0-.9 0h-2.4v-3.5h2.6.7 1.7c.6.1 1 .3 1.3.6s.5.7.5 1.1c0 .5-.1.7-.4 1-.2.3-.6.5-.9.6s-1.1.2-2.2.2z"/><path d="m59.9 56.4c-.7-.4-2-.7-3.7-1-1.6-.3-2.7-.6-3.1-.9-.4-.2-.6-.5-.6-.7 0-.4.2-.7.6-.9.6-.3 1.3-.5 2.3-.5.9 0 1.7.2 2.2.5s.7.8.9 1.5l3.4-.1c0-1.2-.6-2.2-1.7-3-1-.7-2.6-1.2-4.8-1.2-1.2 0-2.3.2-3.3.6-.9.3-1.6.7-2.1 1.4-.6.6-.7 1.2-.7 2 0 1 .5 2 1.5 2.7.7.6 2.1 1 3.8 1.4 1.4.3 2.3.5 2.7.6.7.2 1 .4 1.2.7.3.2.4.5.4.7 0 .6-.3 1-.8 1.4-.6.4-1.3.6-2.4.6-1 0-1.9-.3-2.4-.7-.7-.5-1-1.1-1.2-2l-3.4.2c.3 1.6.9 2.7 2.1 3.6 1.1.8 2.8 1.2 4.9 1.2 1.5 0 2.7-.2 3.7-.6.9-.3 1.7-.8 2.2-1.5.6-.7.7-1.4.7-2.2s-.2-1.6-.7-2.2c-.3-.7-.8-1.2-1.7-1.6z"/><path d="m72 50.3h-1.8l-6.5 13.7h3.6l1.4-3.1h3.3 3.4l1.5 3.1h3.7l-6.7-13.8h-1.9zm0 8.3h-2.3l2.2-5.1.1.1 2.2 5.1h-2.2z"/><path d="m90.5 59.6-3.1-9.3h-5.1v13.7h3.2v-10.8l3.3 10.8h3.2l3.4-10.8v10.8h3.1v-13.7h-5.1z"/><path d="m115 46.5v-29.4h-3.5l.1 29.4z"/><path d="m26 47.6h3.7v-9.1h-15.6v.1h-.2l-5.9 9h5.4l3.1-5.1h9.5z"/><path d="m109.4 46.5.1-28.3-18.2 28.2-.5.7h.5 4.2l10-16.3v15.7z"/><path d="m16.6 34.3-1.3 2.1h1.3 6.7 6.4v-19.2h-2.2l-4.2 6.7zm9.5-7.1v6.2h-2.8l-1.9.1 3.9-6.3z"/><path d="m16.6 30.4 6.7-10.3 1.9-2.9h-1.9-2.7l-4 6.2-14.4 22.1v2.1h3z"/><path d="m36.1 17.2h-4.4l.2 30.4h4.2z"/><path d="m47.8 48 1.3-2.1 11.5-19.4h7.7 1.6l2.9-4-4.5.1-9.9.1-9.3 14.5-7 10.8z"/><path d="m49.1 33.3 6.8-10.6h-6.8l-10.3.1-1.4 2.5.2 1.1h11.5.2l-.2.3-12 18.8v2.5h2.3z"/><path d="m49.1 20.7 19.2-.1h5.9l2.5-3.4h-8.4-19.2-7.1l-1.9 3.5z"/><path d="m84.3 40.6 1.4-2.1v-21.3h-.5l-.9 1.5-16 24.8-2.8 4.3h2.8 2.1l11.1-17.2v14.4z"/><path d="m82.8 17.2h-4.1l-10.4 15.8-8.5 12.8.1 2h2.8l5.6-8.3z"/><path d="m91.8 33.2-.5.7-1.5 2.2-5.5 8.7-1.5 2.3h1.5 3.9l1.6-2.6 1.5-2.2 16.5-25.2h-4.9l-11.1 17.3z"/><path d="m89.8 32.1 1.5-2.2.5-.7v-12h-.5-1.5-1.9l.1 17.7z"/></g></svg>