<svg clip-rule="evenodd" fill-rule="evenodd" height="1080" image-rendering="optimizeQuality" shape-rendering="geometricPrecision" text-rendering="geometricPrecision" viewBox="0 0 2313 1080" width="2313" xmlns="http://www.w3.org/2000/svg"><path d="m0 1079.99h2313v-1079.99h-2313zm2118.58-151.2h-64.8l-27 59.4h-68.4l126-264.59h34.2 34.2l129.61 264.59h-70.21l-28.8-59.4zm0-142.19-1.79-1.8-43.21 98.99h45 43.2zm-2087.98-63h129.61c25.19 0 45 0 57.6 1.8 12.6 1.79 23.41 5.39 34.19 12.59 9.01 5.41 18.01 12.6 25.21 21.61 5.4 9 9 19.79 9 30.6 0 12.6-3.6 23.39-12.6 34.19-7.2 10.8-18.01 18.01-32.39 23.41 19.79 5.39 34.19 12.59 44.99 23.4 10.8 12.59 16.2 25.19 16.2 41.39 0 10.8-3.61 23.4-10.81 34.21-7.18 10.79-16.19 19.79-26.98 27-12.62 7.19-27.01 10.8-45.01 12.6-9 1.8-28.8 1.8-59.4 1.8-5.4 0-12.6 0-17.99 0h-111.62v-264.6zm129.61 45c-7.21 0-16.2 0-25.2 0h-37.8v61.2h43.2 19.8c12.59-1.8 21.61-1.8 27-1.8 10.8-1.8 19.8-3.61 27-9 5.4-5.41 9-12.6 9-21.61 0-7.19-3.6-14.39-9-19.8-5.39-5.39-12.59-7.2-23.4-8.99-5.41 0-14.4 0-30.6 0zm0 104.39c-3.6 0-7.21 0-10.8 0h-52.2v70.2h59.4 3.6 41.41c10.78-1.8 17.99-5.4 23.38-10.8 7.21-5.39 9.01-14.39 9.01-23.39 0-7.21-1.8-14.41-5.39-19.8-5.41-5.41-12.61-9.01-21.61-12.61-7.2-1.79-23.4-3.6-46.8-3.6zm197.99 115.21v-264.6h239.4v45h-174.59v59.4h161.99v43.2h-161.99v71.99h179.98v45.01zm432-219.6c-3.6 0-9 0-14.4 0h-50.4v66.59h46.8 18c21.6 0 36-1.8 41.4-3.59 7.2-1.8 14.4-5.4 18-10.81 5.4-5.39 7.21-10.79 7.21-19.8 0-8.99-3.61-16.19-9.02-21.6-5.39-5.4-14.39-9-25.19-10.79-3.6 0-14.4 0-32.4 0zm0 124.19c-5.41-5.4-12.59-9-19.8-12.6-7.2-1.8-18-1.8-32.39-1.8h-12.61v109.81h-66.59v-264.6h131.39 7.21c34.19 0 59.4 1.8 75.59 7.19 14.39 5.4 26.99 12.61 36 25.2 10.79 12.61 14.41 27.01 14.41 41.4 0 19.8-7.21 36-21.61 50.41-14.41 12.59-34.21 19.79-63 23.4 14.4 7.19 25.19 14.39 34.2 23.39 9 7.2 21.6 21.6 37.79 43.2l39.6 50.41h-79.2l-46.79-57.6c-16.2-19.81-26.99-32.41-34.2-37.81zm178.2 9 64.8-3.6c3.6 16.21 10.8 28.81 23.4 37.8 10.8 7.2 27 12.6 46.8 12.6 21.59 0 36-3.59 46.8-10.8 10.8-7.19 16.2-16.2 16.2-27 0-5.4-1.79-10.8-7.2-14.4-3.61-5.39-10.79-9-23.41-12.6-7.18-1.8-25.19-5.4-52.19-10.8-34.21-7.2-59.4-16.2-73.81-26.99-19.8-14.4-28.79-32.41-28.79-52.21 0-14.4 3.6-26.99 14.4-37.8 9-12.59 21.6-21.6 39.6-26.99 17.99-7.2 39.6-10.81 63-10.81 41.4 0 72 9 91.8 23.41 21.59 14.39 32.4 34.2 32.4 57.6l-64.8 1.79c-3.6-12.59-8.99-23.4-18-28.79-9-5.4-23.41-9-41.4-9-19.8 0-34.2 3.6-45.01 9-7.2 5.39-10.78 10.8-10.78 18 0 5.4 3.58 10.79 10.78 14.4 7.21 7.19 28.82 12.59 59.4 17.99 32.4 7.21 55.82 12.6 70.21 19.81 16.19 7.2 27 16.2 36 27 9.01 10.79 12.59 25.19 12.59 41.39 0 16.21-3.58 30.6-14.39 43.2-10.8 12.6-25.21 23.4-43.2 28.8-19.8 7.2-43.2 10.8-71.99 10.8-39.6 0-72.02-7.19-93.61-23.4-21.61-16.2-34.21-37.8-39.6-68.4zm446.4-115.19-1.79-1.8-43.22 98.99h45.01 43.2zm0 142.2h-64.81l-26.99 59.4h-68.41l126-264.6h34.21 34.2l129.61 264.6h-70.21l-28.81-59.4zm198 59.4v-264.6h97.19l59.4 179.99 57.59-179.99h97.21v264.6h-59.4v-208.81l-64.81 208.81h-62.98l-63.01-208.81v208.81zm563.39-336.61h64.79v-565.19h-66.6zm-1873.99-153.24 299.35-1.53v175.81h-71.17v-97.78h-182.35l-60.01 98.35h-104.41l113.4-174.6 5.2.13zm1483.39 151.45 349.19-541.8-1.79 543.59h-73.8v-302.39l-192.61 313.2h-80.99-8.99zm-1436.38-232.2-25.2 39.6h25.2 129.6 122.39v-368.99h-41.41l-80.98 129.59zm129.6-17.99-36 1.79 75.6-120.6h14.41v118.81zm-129.6-57.61-217.8 331.2h-59.4v-41.41l277.2-424.79 77.41-118.79h52.19 36l-36 55.8zm295.19 331.2h81v-584.99h-84.6zm329.39-199.8-133.2 206.99h108.01l25.19-41.4 221.4-372.59h147.61 30.61l55.8-75.6-86.41 1.8-189 1.81zm0-75.6-185.4 282.59h-44.99v-48.6l230.39-361.78 3.61-5.41h-3.61-219.58l-5.41-21.59 27-46.8 197.99-1.8h131.4zm0-242.99h-172.8l37.81-66.6h134.99 369.01 162l-48.61 64.79h-113.39zm369.01 521.99h-54l54-82.8 307.79-476.99 18-28.8h9.01v408.6l-27.01 41.39-53.99 84.6v-277.2l-212.4 331.2zm0-284.4-162 244.8 1.8 39.6h54l106.2-160.2 278.99-428.39h-79.2zm307.79 226.8-28.8 43.2h28.8 75.6l30.61-48.6 28.79-43.21 316.8-484.19h-93.61l-214.19 333.01v-23.41l-9 12.6-28.79 43.2zm106.21-244.8-34.21 54-1.81-340.19h36.02 28.79 9v230.39l-9 14.4z" fill="#2f318b"/><g fill="#fefefe"><path d="m2118.58 928.79h-64.8l-27 59.4h-68.4l126-264.59h34.2 34.2l129.61 264.59h-70.21l-28.8-59.4zm0-142.19-1.79-1.8-43.21 98.99h45 43.2z"/><path d="m2176.19 651.59h64.79v-565.19h-66.6zm-1873.99-153.24 299.35-1.53v175.81h-71.17v-97.78h-182.35l-60.01 98.35h-104.41l113.4-174.6 5.2.13zm1483.39 151.45 349.19-541.8-1.79 543.59h-73.8v-302.39l-192.61 313.2h-80.99-8.99zm-1436.38-232.2-25.2 39.6h25.2 129.6 122.39v-368.99h-41.41l-80.98 129.59zm129.6-17.99-36 1.79 75.6-120.6h14.41v118.81zm-129.6-57.61-217.8 331.2h-59.4v-41.41l277.2-424.79 77.41-118.79h52.19 36l-36 55.8zm295.19 331.2h81v-584.99h-84.6zm329.39-199.8-133.2 206.99h108.01l25.19-41.4 221.4-372.59h147.61 30.61l55.8-75.6-86.41 1.8-189 1.81zm0-75.6-185.4 282.59h-44.99v-48.6l230.39-361.78 3.61-5.41h-3.61-219.58l-5.41-21.59 27-46.8 197.99-1.8h131.4zm0-242.99h-172.8l37.81-66.6h134.99 369.01 162l-48.61 64.79h-113.39zm369.01 521.99h-54l54-82.8 307.79-476.99 18-28.8h9.01v408.6l-27.01 41.39-53.99 84.6v-277.2l-212.4 331.2zm0-284.4-162 244.8 1.8 39.6h54l106.2-160.2 278.99-428.39h-79.2zm307.79 226.8-28.8 43.2h28.8 75.6l30.61-48.6 28.79-43.21 316.8-484.19h-93.61l-214.19 333.01v-23.41l-9 12.6-28.79 43.2zm106.21-244.8-34.21 54-1.81-340.19h36.02 28.79 9v230.39l-9 14.4z"/><path d="m1612.8 988.19v-264.59h97.19l59.4 179.99 57.59-179.99h97.21v264.59h-59.4v-208.8l-64.81 208.8h-62.98l-63.01-208.8v208.8z"/><path d="m1414.8 928.79h-64.81l-26.99 59.4h-68.41l126-264.59h34.21 34.2l129.61 264.59h-70.21l-28.81-59.4zm0-142.19-1.79-1.8-43.22 98.99h45.01 43.2z"/><path d="m968.4 901.79 64.79-3.6c3.61 16.21 10.81 28.81 23.41 37.8 10.8 7.2 27 12.61 46.8 12.61 21.59 0 36-3.61 46.8-10.8 10.8-7.21 16.2-16.21 16.2-27.01 0-5.4-1.79-10.8-7.2-14.4-3.61-5.39-10.79-9-23.41-12.6-7.18-1.79-25.19-5.4-52.19-10.8-34.21-7.2-59.4-16.2-73.81-26.99-19.8-14.4-28.79-32.41-28.79-52.21 0-14.4 3.6-26.99 14.4-37.79 9-12.6 21.6-21.61 39.6-27 17.99-7.2 39.6-10.81 63-10.81 41.4 0 72 9 91.8 23.41 21.59 14.4 32.4 34.2 32.4 57.6l-64.8 1.79c-3.6-12.59-8.99-23.4-18-28.79-9-5.4-23.41-9-41.4-9-19.8 0-34.2 3.6-45.01 9-7.2 5.39-10.78 10.8-10.78 18 0 5.4 3.58 10.79 10.78 14.4 7.21 7.2 28.82 12.59 59.4 18 32.4 7.2 55.82 12.6 70.21 19.8 16.19 7.2 27 16.2 35.99 27 9.02 10.79 12.6 25.19 12.6 41.39 0 16.21-3.58 30.6-14.39 43.2-10.8 12.6-25.21 23.4-43.2 28.8-19.8 7.2-43.2 10.8-71.99 10.8-39.6 0-72.02-7.2-93.61-23.4-21.61-16.2-34.21-37.8-39.6-68.4z"/><path d="m790.2 892.79c-5.4-5.4-12.59-9-19.8-12.6-7.2-1.8-18-1.8-32.39-1.8h-12.61v109.8h-66.59v-264.59h131.39 7.21c34.19 0 59.4 1.8 75.59 7.19 14.39 5.41 26.99 12.61 36 25.21 10.79 12.6 14.41 27 14.41 41.39 0 19.8-7.21 36-21.61 50.41-14.41 12.59-34.21 19.79-63 23.39 14.4 7.2 25.19 14.4 34.2 23.4 9 7.2 21.6 21.6 37.79 43.21l39.6 50.39h-79.2l-46.8-57.6c-16.19-19.8-26.98-32.4-34.19-37.8zm0-124.19c-3.6 0-9.01 0-14.4 0h-50.4v66.6h46.8 18c21.6 0 36-1.81 41.4-3.6 7.2-1.8 14.4-5.4 18-10.81 5.4-5.39 7.21-10.79 7.21-19.8 0-8.99-3.61-16.19-9.02-21.6-5.39-5.4-14.39-9-25.19-10.79-3.6 0-14.4 0-32.4 0z"/><path d="m358.2 988.19v-264.59h239.4v45h-174.59v59.4h161.99v43.19h-161.99v72h179.99v45z"/><path d="m30.6 723.6h129.61c25.19 0 44.99 0 57.6 1.8 12.6 1.79 23.41 5.39 34.19 12.59 9.01 5.41 18.01 12.6 25.21 21.61 5.4 9 9 19.79 9 30.6 0 12.6-3.6 23.39-12.6 34.2-7.2 10.8-18.01 18-32.39 23.4 19.79 5.39 34.18 12.59 44.99 23.39 10.8 12.6 16.2 25.2 16.2 41.4 0 10.8-3.61 23.4-10.81 34.2-7.18 10.8-16.2 19.8-26.98 27.01-12.62 7.19-27.01 10.8-45.01 12.59-9 1.8-28.8 1.8-59.4 1.8-5.4 0-12.6 0-17.99 0h-111.62v-264.59zm129.61 45c-7.21 0-16.2 0-25.2 0h-37.8v61.2h43.2 19.8c12.59-1.8 21.61-1.8 27-1.8 10.8-1.8 19.8-3.6 27-9 5.4-5.41 9-12.6 9-21.61 0-7.19-3.6-14.39-9-19.8-5.39-5.39-12.59-7.2-23.4-8.99-5.41 0-14.4 0-30.6 0zm0 104.39c-3.6 0-7.21 0-10.81 0h-52.19v70.2h59.4 3.6 41.41c10.78-1.8 17.99-5.39 23.38-10.8 7.2-5.39 9.01-14.4 9.01-23.39 0-7.21-1.81-14.41-5.39-19.8-5.41-5.41-12.62-9.01-21.61-12.61-7.2-1.8-23.4-3.6-46.8-3.6z"/></g></svg>