<svg enable-background="new 0 0 140 97.3" viewBox="0 0 140 97.3" xmlns="http://www.w3.org/2000/svg"><path d="m27.9 66.5c-.1 0-.3 0-.6 0h-.6l.1.9h.5.2c.3 0 .4 0 .5-.1.1 0 .2-.1.2-.2.1-.1.1-.2.1-.3s0-.2-.1-.3c-.1.1-.2 0-.3 0z" fill="none"/><path d="m33.8 64.2-.1 1.4.4-.2.5-.1-.5-.7z" fill="none"/><path d="m5.3 31.6c-2.3 5.5-3.6 11.1-3.7 16.9-.1 5.7 1 11.5 3.7 17.5 6 2.6 12 3.9 18 4h.5c6.1 0 12.3-1.3 18.4-4 2.7-8.3 3.4-16.6 2.2-24.9-.2-1.6-.6-3.3-.9-4.9-.3-1.5-.8-3.1-1.3-4.6-6.5-2.9-12.8-4.3-18.9-4.3h-.1c-6.3 0-12.2 1.5-17.9 4.3zm2.6 19.1c2.3 2.1 5.6 4.1 10.8 4.7-1.2-.9-2-2.3-3.8-2.5-4-.3-6.4-3.2-6.9-5.7-.6-3.1 3.2-6.1 5.7-5.4 3.7 1 6.2 4.1 7.3 7.8 1 3.2 1.1 6.9.9 10.7-1.7-.8-2.8-2-4.6-2.5-3.2-.9-5.8.7-8.6-1.3-1.4-1-1.2-4-.8-5.8zm3.9 14.9c.1.3.3.4.6.5h.5c.2 0 .3-.1.4-.1l.1-.4-.8-.2.1-.6 1.5.4-.4 1.4c-.2.1-.4.2-.7.2s-.6 0-.9-.1c-.4-.1-.7-.3-.9-.5s-.4-.5-.4-.8 0-.6 0-1c.1-.3.3-.6.5-.9.2-.2.5-.4.8-.4.3-.1.6 0 .9 0 .4.1.7.3.9.5s.3.5.3.9h-.7c0-.2 0-.3-.2-.5-.1-.1-.3-.2-.5-.3-.3-.1-.6 0-.8.1s-.4.4-.5.8c0 .4.1.7.2 1zm5.9-.4c0 .3-.2.5-.3.6-.2.1-.4.2-.7.2.1.1.3.2.3.3.1.1.2.3.3.6l.3.8-.8-.2-.4-.9c0-.1-.1-.2-.1-.2-.1-.2-.1-.3-.2-.3s-.2-.1-.3-.1-.2-.1-.3-.1h-.2l-.3 1.5-.7-.1.6-3.5 1.2.2h.3c.4.1.6.1.8.2s.3.2.3.4c.2.2.2.4.2.6zm3.1 1.2c0 .4-.1.7-.1.9s-.1.3-.2.4-.3.2-.5.3-.4.1-.7 0c-.3 0-.6-.1-.8-.2s-.3-.2-.4-.3-.1-.3-.2-.4c0-.2 0-.5 0-.9l.2-1.9.7.1-.2 1.9v.6c0 .2.1.3.2.4s.3.2.5.2.4 0 .5-.1.2-.2.2-.3 0-.3.1-.6l.2-2 .7.1zm3.3-.1c-.1.1-.2.3-.3.3-.1.1-.3.1-.4.2-.1 0-.3 0-.6 0 0 0-.1 0-.2 0h-.5v1.3h-.7l.1-3.5h1.1.2c.3 0 .6 0 .7.1.2 0 .4.2.5.3s.2.4.2.7 0 .5-.1.6zm4.8 1.1c-.1.2-.2.3-.3.4s-.3.2-.5.2c-.1 0-.4 0-.9.1l-1.2.1-.3-3.5 1.4-.1h.1.6c.1 0 .3 0 .4.1.1 0 .2.1.3.3.1.1.1.3.1.4 0 .2 0 .3-.1.5-.1.1-.2.3-.3.3.2 0 .4.1.5.3.1.1.2.3.2.5.1.1.1.2 0 .4zm3.1-.2c-.2.2-.5.4-.9.4-.5.1-.9 0-1.2-.3-.4-.3-.6-.7-.7-1.2-.1-.6 0-1.1.2-1.4.2-.4.6-.6 1.1-.7.4-.1.8 0 1.1.2.2.1.3.3.5.6l-.7.3c-.1-.2-.2-.3-.3-.4-.2-.1-.3-.1-.5-.1-.3 0-.4.2-.6.4-.1.2-.2.5-.1.9s.2.7.4.9.4.2.7.2c.2 0 .3-.1.4-.3.1-.1.2-.3.2-.6l.7.1c0 .4-.1.7-.3 1zm3.5-.7-.5-.7-.8.2-.5.1-.2.9-.7.2.5-3.8.7-.2.1.2 2.1 2.9zm3.8-19.3c-.5 2.5-3 5.4-6.9 5.7-1.8.2-2.6 1.6-3.8 2.5 5.2-.5 8.5-2.5 10.8-4.7.3 1.8.6 4.8-.8 5.8-2.8 2-5.3.4-8.6 1.3-1.8.5-2.9 1.7-4.7 2.5-.2-3.8-.2-7.5.9-10.7 1.2-3.7 3.6-6.8 7.3-7.8 2.7-.7 6.4 2.3 5.8 5.4zm-15.8-16.6c4.5 0 7.3 3.2 7.6 6.9.4 4.2-4.7 7-6.1 11.1s-1 8.6-1.4 12.9c-.3-4.4-.1-9-1.4-13.2-1.2-3.9-5.8-6.1-5.9-10.5-.1-3.4 2.4-7.2 7.2-7.2z" fill="none"/><path d="m23.1 65.3c-.1 0-.1 0-.3 0-.1 0-.2 0-.3 0h-.3v1h.4.3.3c.1 0 .2-.1.2-.2s.1-.2.1-.3 0-.2-.1-.3c-.1-.2-.2-.2-.3-.2z" fill="none"/><path d="m27.3 65.9h.3c.1 0 .2-.1.3-.2s.1-.2.1-.3 0-.2-.1-.3c0-.1-.1-.1-.3-.1 0 0-.1 0-.3 0-.1 0-.2 0-.3 0h-.4l.1.8h.5c0 .1 0 .1.1.1z" fill="none"/><path d="m16.6 64.6s-.2 0-.5-.1l-.6-.1-.1.9.5.1h.2.4c.1 0 .2 0 .2-.1s.1-.1.1-.3c0-.1 0-.2 0-.3s0 0-.2-.1z" fill="none"/><path d="m71.2 50.7c-.2 0-.5-.1-.8-.1h-4.3l-1.9 7.3h5.8c.4 0 .9-.2 1.3-.4 2.1-1.5 3.3-6.2-.1-6.8z" fill="none"/><path d="m128.8 41.7-2.9 5.7-2.8 5.7h2.8 2.9z" fill="none"/><path d="m73.6 39.2h-2.3-2.4l-1.6 6.5h4 1.4c3.1 0 3.4-6.5.9-6.5z" fill="none"/><g fill="#fff"><path d="m44.9 35.9c-.4-1.7-.9-3.4-1.4-5l-.1-.3-.3-.1c-6.8-3-13.4-4.6-19.9-4.6v1.6c6.1 0 12.4 1.5 18.9 4.3.5 1.5.9 3.1 1.3 4.6.4 1.6.7 3.3.9 4.9 1.2 8.3.5 16.6-2.2 24.9-6.1 2.7-12.3 4-18.4 4-.2 0-.3 0-.5 0v1.6h.5c6.4 0 12.9-1.4 19.4-4.3l.3-.1.1-.3c1.8-5.6 2.8-11.1 2.9-16.7v-2.6c0-2.2-.2-4.4-.6-6.6-.1-2-.5-3.6-.9-5.3z"/><path d="m5.3 66c-2.7-6-3.8-11.8-3.7-17.5s1.4-11.4 3.7-16.9c5.7-2.9 11.7-4.3 17.8-4.3h.1v-1.6h-.1c-6.5 0-12.7 1.5-18.8 4.6l-.4.4c-2.4 5.9-3.8 11.8-3.9 17.8v.3.4c0 5.8 1.3 11.7 3.9 17.7l.4.4c6.3 2.8 12.6 4.2 18.9 4.3v-1.6c-6-.1-12-1.4-17.9-4z"/><path d="m16.3 37.8c.1 4.3 4.7 6.5 5.9 10.5 1.3 4.2 1.1 8.8 1.4 13.2.4-4.3 0-8.8 1.4-12.9 1.3-4 6.4-6.8 6.1-11.1-.3-3.6-3.1-6.9-7.6-6.9-4.8 0-7.3 3.8-7.2 7.2z"/><path d="m26.3 49.6c-1.1 3.2-1.1 6.9-.9 10.7 1.7-.8 2.8-2 4.7-2.5 3.2-.9 5.8.7 8.6-1.3 1.4-1 1.2-4.1.8-5.8-2.3 2.1-5.7 4.1-10.8 4.7 1.2-.9 1.9-2.3 3.8-2.5 4-.3 6.4-3.2 6.9-5.7.6-3.1-3.2-6.1-5.7-5.4-3.8 1.1-6.3 4.2-7.4 7.8z"/><path d="m17.2 57.9c1.8.5 2.9 1.7 4.6 2.5.2-3.8.2-7.5-.9-10.7-1.2-3.7-3.6-6.8-7.3-7.8-2.6-.7-6.3 2.3-5.7 5.4.5 2.5 3 5.4 6.9 5.7 1.8.2 2.6 1.6 3.8 2.5-5.2-.5-8.5-2.5-10.8-4.7-.3 1.8-.6 4.8.8 5.8 2.8 1.9 5.4.3 8.6 1.3z"/><path d="m17.3 64.2c-.2-.1-.4-.2-.8-.2h-.3l-1.2-.3-.6 3.5.7.1.3-1.5h.2c.2 0 .3.1.3.1.1 0 .1.1.2.2 0 .1.1.2.2.3 0 .1.1.2.1.2l.4.9.8.2-.4-.7c-.1-.3-.2-.5-.3-.6s-.2-.2-.3-.3c.3 0 .6-.1.7-.2.2-.1.3-.3.3-.6 0-.2 0-.4 0-.6-.1-.3-.2-.4-.3-.5zm-.4.9c0 .1-.1.2-.1.3-.1.1-.1.1-.2.1s-.2 0-.4 0c-.1 0-.1 0-.2 0l-.5-.1.1-.9.6.1c.3 0 .4.1.5.1s.2.1.3.2 0 .1-.1.2z"/><path d="m23.5 64.7c-.1 0-.3-.1-.7-.1 0 0-.1 0-.2 0h-1.1l-.1 3.5h.7v-1.3h.5.2.6c.1 0 .3-.1.4-.2s.2-.2.3-.3c.1-.2.1-.3.1-.6s0-.5-.2-.7-.3-.2-.5-.3zm-.1 1.3c-.1.1-.1.1-.2.2-.1 0-.2 0-.3 0s-.2 0-.3 0h-.4v-1h.3.3.3c.1 0 .2.1.3.2s.1.2.1.3c0 .2-.1.2-.1.3z"/><path d="m20.1 66.5c0 .3 0 .5-.1.6 0 .1-.1.2-.2.3s-.3.1-.5.1-.3-.1-.5-.2c-.1-.1-.2-.2-.2-.4 0-.1 0-.3 0-.6l.2-1.9-.7-.1-.1 1.9v.9c0 .1.1.3.2.4s.2.2.4.3.4.2.7.2h.7c.2 0 .3-.1.5-.3.1-.1.2-.3.2-.4.1-.2.1-.5.1-.9l.2-1.8-.7-.1z"/><path d="m12.3 63.8c.2-.1.5-.2.8-.1.2 0 .3.2.5.3.1.1.2.3.2.5h.7c0-.3-.1-.6-.3-.9s-.5-.4-.9-.5c-.3-.1-.6-.1-.9 0s-.6.2-.8.4c-.2.3-.4.6-.5.9s-.1.6 0 1c.1.3.2.6.4.8s.5.4.9.5c.3.1.6.1.9.1s.6-.1.7-.2l.4-1.4-1.5-.4-.1.6.8.2-.3.4c-.1 0-.3.1-.4.1-.2 0-.3 0-.5 0-.3-.1-.5-.2-.6-.5s-.1-.6 0-1 .2-.7.5-.8z"/><path d="m34 63.3-.7.2-.5 3.8.7-.2.1-.9.5-.1.8-.2.5.7.7-.2-2.1-2.9zm.1 2.1-.5.1.1-1.4.3.5.5.7z"/><path d="m28.2 66.1c.2-.1.3-.2.3-.3.1-.1.1-.3.1-.5s-.1-.3-.1-.4c-.1-.1-.2-.2-.3-.3s-.3-.1-.4-.1-.3 0-.6 0c0 0 0 0-.1 0l-1.4.1.3 3.5 1.2-.1c.4 0 .7-.1.9-.1s.3-.1.5-.2c.1-.1.2-.2.3-.4 0-.2.1-.3.1-.5s-.1-.4-.2-.5c-.2-.1-.3-.1-.6-.2zm-1.6-.9h.4.3.3c.1 0 .2 0 .3.1.1 0 .1.1.1.3 0 .1 0 .2-.1.3s-.2.1-.3.2c0 0-.2 0-.3 0 0 0-.1 0-.2 0h-.5zm1.6 2c0 .1-.1.1-.2.2-.1 0-.2 0-.5.1h-.2-.5l-.1-.9h.6.6c.1 0 .2.1.2.1.1.1.1.2.1.3.1.1 0 .1 0 .2z"/><path d="m31.4 66.7c-.1.2-.2.3-.4.3-.3 0-.5 0-.7-.2s-.3-.5-.4-.9 0-.7.1-.9.3-.3.6-.4c.2 0 .3 0 .5.1.1.1.3.2.3.4l.7-.3c-.1-.3-.3-.5-.5-.6-.3-.2-.7-.3-1.1-.2-.5.1-.9.3-1.1.7-.3.4-.3.9-.2 1.4.1.6.3.9.7 1.2.3.3.8.3 1.2.3.4-.1.7-.2.9-.4s.3-.6.4-.9l-.7-.1c-.1.2-.2.4-.3.5z"/><path d="m93.3 49.9c.6-5.2 10.7-9.6 17.6-4.7l.5-1.1 3.5-8.2-3.5-1.9-3.6-2-.6 1.9c-4.2.3-15.3-3.5-22.2 13.5-.6 1.5-1 3.2-1.2 4.8-.1 1.2-.1 2.4 0 3.6.8 6.4 6.2 11.9 20.1 10.4l3.6-9.7c-10.6 3.2-14.7-1.1-14.2-6.6z"/><path d="m140 66-2.9-32.8h-11.2-4l-4.4 8.2h1.6l-7.8 16.7-3.5 7.5h3.5 7l2.2-6h5.4 2.9v6.4zm-14.1-12.9h-2.9l2.9-5.7 2.9-5.7v11.4z"/><path d="m83.7 40.9c.2-.9.2-1.9 0-2.7-.5-2.8-2.7-5.1-6.8-5.2l-5.7-.1-9.8-.2-4.6 8.9 2-.2-5.5 24.2h15.8c.7 0 1.4-.1 2-.2 7.6-1.4 14.9-10.4 7.6-17.5 2.8-1.5 4.6-4.2 5-7zm-12.5 16.6c-.4.3-.8.4-1.3.4h-5.7l1.9-7.3h4.3c.3 0 .6 0 .8.1 3.4.6 2.2 5.3 0 6.8zm1.4-11.8h-1.4-4l1.6-6.5h2.4 2.3c2.6 0 2.3 6.5-.9 6.5z"/></g></svg>