<svg enable-background="new 0 0 140 97.3" viewBox="0 0 140 97.3" xmlns="http://www.w3.org/2000/svg"><g clip-rule="evenodd" fill="#fff" fill-rule="evenodd"><path d="m48.3 28.3c1.6 1.1 3.3 2.8 3.3 4.5v29c0 1.6-1.5 3.9-2.9 4.8h14.8c9.5-.4 15.3-3.8 16-11.1.5-5.1-2.2-9-8.8-11.2 3.3-1.2 5-4 5.2-7.7.3-6.5-7.2-8.3-12-8.3zm9.2 15.5v-12.1h4.5c5.1 0 7.6 2.5 7.6 6.3s-3.5 5.8-7.8 5.8zm4.8 19.1h-4.8v-15.7h5.5c8.1 0 10.6 4.9 10.2 8.9-.5 4-3.9 6.8-10.9 6.8zm30.2-34.6h-8c1.8 2 2.6 3 2.6 6.1v26.4c0 3-1.3 4.9-3.3 6.2h10.7c-1.6-1-3.3-2.9-3.3-6.3v-23.3c5.4 7.2 10.8 14.4 16.2 21.6 3.1 4 6.6 7.4 10.7 10v-34.8c0-3.5 1.4-4.8 3.3-6h-10.4c1.9 1.4 2.9 3 2.9 5.8v23.3zm34.7 38.7c2.2-1.4 3.3-3.1 3.3-5.3v-27.6c0-3.3-.9-4-2.8-5.8h12.3c-2.1 1.2-3.6 3.6-3.6 5.8v27.6c0 2.1 1.3 4.1 3 5.4z"/><path d="m0 28.3h11.9c-.6 1.1-1.1 3.5.1 8.8 1.1 4.8 4.2 9.8 7.4 13.7l-4 3.3-15.4-19.2zm17.4 0h20.9v5.1c-1.6-.9-4.6-1.9-8.9-.1-7 2.8-7.6 11-7.6 11-3.9-4.8-6.4-12.4-4.4-16zm20.9 11.8v15.1c-4.8 1.8-11.4-2.9-13.1-8.5-2.4-8.1 3.3-11 7.4-10.2 3 .6 4.8 2.4 5.7 3.6zm0 17.5v8.9h-12.8l2.6-2.1c-1.7.2-5-.6-6.6-2.6l-4.5-5.7 4.1-3.4c2.5 2.8 5 4.8 6.3 5.4 2.9 1.4 6.2 2 10.9-.5zm-20 9h-14l8.7-7.2c.7.9 1.4 1.8 2.1 2.6 1.3 1.6 2.3 3.2 3.2 4.6zm-18.1 0h-.2v-23.6c3.3 4.2 7.6 9.5 11.4 14.3z"/></g></svg>