<svg enable-background="new 0 0 140 97.3" viewBox="0 0 140 97.3" xmlns="http://www.w3.org/2000/svg"><g clip-rule="evenodd" fill="#fff" fill-rule="evenodd"><path d="m0 29c0-4.4 3.5-7.9 7.9-7.9h39.2c4.4 0 7.9 3.5 7.9 7.9v39.2c0 4.4-3.5 7.9-7.9 7.9h-39.2c-4.4 0-7.9-3.5-7.9-7.9zm9.6 41.7c-2.3 0-4.2-1.9-4.2-4.2v-35.7c0-2.3 1.9-4.2 4.2-4.2h4.8c6.3 0 11 6.4 7 10.4l-11.8 11.8 10.1 10.5c4.9 5.1-.8 11.5-6.2 11.5-.1-.1-3.9-.1-3.9-.1zm15.2-44.1h4.1c6.3 0 11 6.4 7 10.4l-11.8 11.8 21.6 22h-22.7c4.9 0 8-8.2 2.7-13.7l-8-8.3 9.3-9.6c5-5.2 1.3-11.8-2.2-12.6zm24.8 39.9-17.5-17.7 9.3-9.6c5-5.2 1.4-11.8-2.1-12.6h6.1c2.3 0 4.2 1.9 4.2 4.2z"/><path d="m78.5 51.3v7.6h3.4c1.7 0 3.1-.3 4-1s1.4-1.6 1.4-2.9c0-1.2-.4-2.2-1.2-2.8s-2.1-.9-3.7-.9zm0-12.9v7.2h2.6c1.8 0 3.2-.3 4.1-.9s1.4-1.5 1.4-2.8c0-1.1-.4-2-1.3-2.6-.8-.6-2.1-.9-3.7-.9zm-8.4-5.8h13.2c3.9 0 6.8.7 8.8 2.1s2.9 3.5 2.9 6.3c0 1.9-.5 3.4-1.5 4.6s-2.5 2.1-4.5 2.7c2.2.4 3.9 1.3 5.1 2.6s1.8 3 1.8 5.1c0 3-1.1 5.3-3.2 6.7-2.2 1.5-5.5 2.2-10 2.2h-12.6z"/><path d="m109.3 38.2v8.3h3c1.9 0 3.3-.3 4.2-1s1.4-1.7 1.4-3c0-1.5-.5-2.5-1.5-3.2s-2.7-1-4.9-1zm-8.4-5.6h12.8c4.3 0 7.4.7 9.5 2.1s3.1 3.5 3.1 6.3c0 2.1-.5 3.8-1.6 5.2-1.1 1.3-2.7 2.2-4.7 2.7 1.7.6 3.1 2.4 4.1 5.3l3.8 10.7h-8.9l-2.8-8.8c-.5-1.4-1.1-2.4-1.9-2.9s-2-.8-3.7-.8h-1.2v12.6h-8.4z"/><path d="m131.4 32.6h8.6v32.2h-8.6z"/></g></svg>