<svg enable-background="new 0 0 140 97.3" viewBox="0 0 140 97.3" xmlns="http://www.w3.org/2000/svg"><path d="m0 37.5h22.2v22.2h-22.2z" fill="#fff"/><path d="m14.8 41.7h-11.8l5.2 6.9h11.8z" fill="#e1251b"/><path d="m20 48.6h-11.8l-5.2 7h11.8z" fill="#7a303f"/><g fill="#fff"><path d="m39 52.4c-.9.7-1.9 1-3 1-2.7 0-4.7-2.1-4.7-4.8s2.1-4.8 4.7-4.8c1.1 0 2.1.4 3 1l2-2c-1.4-1.2-3.2-1.9-5-1.9-4.3 0-7.8 3.5-7.8 7.7s3.5 7.7 7.8 7.7c1.8 0 3.6-.7 5-1.9zm4.9 3.5h2.9v-14.5h-2.9zm14.5-5.2c-.1-.2-5.1-9.3-5.1-9.3h-2.9v14.6h2.9s0-8.3 0-8.7c.2.4 5.1 8.8 5.1 8.8s4.8-8.4 5-8.8v8.7h2.9v-14.7h-2.9c.1 0-4.9 9.2-5 9.4zm20.1-2.2c.6-.4 1.7-1.4 1.7-3 0-2.5-1.7-4.1-4.5-4.1h-5.9v14.6h6.1c2.8 0 4.5-1.6 4.5-4.2 0-2-1.1-3-1.9-3.3zm-5.7-4.5h2.7c1.1 0 1.8.6 1.8 1.6s-.7 1.6-1.8 1.6c0 0-2.6 0-2.7 0zm2.9 9.3s-2.8 0-2.9 0v-3.4h2.9c1.3 0 1.8.9 1.8 1.7s-.5 1.7-1.8 1.7z"/><path d="m91.8 55.9h-5.7v-14.6h5.5c2.5 0 4.3 1.4 4.3 3.9 0 1.5-.9 2.7-2.1 3.2 1.4.5 2.4 1.7 2.4 3.5 0 2.6-1.8 4-4.4 4zm-.3-13.2h-3.8v5h3.8c1.6 0 2.9-.8 2.9-2.5s-1.3-2.5-2.9-2.5zm.2 6.5h-4v5.3h4c1.8 0 2.9-1 2.9-2.7 0-1.6-1.1-2.6-2.9-2.6z"/><path d="m99.2 55.9h-1.7l6.3-14.5h1.4l6.3 14.5h-1.7l-1.6-3.8h-7.4zm2.1-5.2h6.3l-3.1-7.6z"/><path d="m123.9 53.7v-12.2h1.5v14.5h-1.8l-8.6-12.5v12.4h-1.5v-14.5h1.8z"/><path d="m130.5 47.7h.2l6.8-6.3h2.1l-7.3 6.6 7.7 7.9h-2.2l-7.1-7.5h-.2v7.5h-1.5v-14.5h1.5z"/></g></svg>