<svg enable-background="new 0 0 512 394.45" viewBox="0 0 512 394.45" xmlns="http://www.w3.org/2000/svg" xmlns:xlink="http://www.w3.org/1999/xlink"><linearGradient id="a"><stop offset="0" stop-color="#007940"/><stop offset=".2285" stop-color="#00873f"/><stop offset=".7433" stop-color="#40a737"/><stop offset="1" stop-color="#5cb531"/></linearGradient><linearGradient id="b" gradientTransform="matrix(70.3176 0 0 -43.5515 24069.502 22495.2148)" gradientUnits="userSpaceOnUse" x1="-337.4154" x2="-335.4154" xlink:href="#a" y1="511.4888" y2="511.4888"/><linearGradient id="c" gradientTransform="matrix(70.2592 0 0 -170.7188 24049.7617 87749.7969)" gradientUnits="userSpaceOnUse" x1="-337.4149" x2="-335.4144" xlink:href="#a" y1="512.8463" y2="512.8463"/><linearGradient id="d" gradientTransform="matrix(70.3204 0 0 -43.5788 24070.4004 22486.3809)" gradientUnits="userSpaceOnUse" x1="-337.4147" x2="-335.4148" xlink:href="#a" y1="512.0151" y2="512.0151"/><linearGradient id="e" gradientTransform="matrix(71.4062 0 0 -173.3469 24285.4043 89098.3984)" gradientUnits="userSpaceOnUse" x1="-339.7043" x2="-337.7043" y1="512.8517" y2="512.8517"><stop offset="0" stop-color="#1f286f"/><stop offset=".4751" stop-color="#004e94"/><stop offset=".8261" stop-color="#0066b1"/><stop offset="1" stop-color="#006fbc"/></linearGradient><linearGradient id="f" gradientTransform="matrix(69.352 0 0 -168.669 23659.1992 86697.9062)" gradientUnits="userSpaceOnUse" x1="-338.4778" x2="-336.4777" y1="512.8411" y2="512.8411"><stop offset="0" stop-color="#6c2c2f"/><stop offset=".1735" stop-color="#882730"/><stop offset=".5731" stop-color="#be1833"/><stop offset=".8585" stop-color="#dc0436"/><stop offset="1" stop-color="#e60039"/></linearGradient><path d="m512 314.92c0 43.77-35.63 79.54-79.54 79.54h-432.46v-314.92c0-43.77 35.63-79.54 79.54-79.54h432.46z" fill="#fff"/><path d="m371.16 234.12h32.82c.98 0 3.09-.28 4.07-.28 6.31-1.26 11.64-6.87 11.64-14.73 0-7.57-5.33-13.19-11.64-14.73-.98-.28-2.81-.28-4.07-.28h-32.82z" fill="url(#b)"/><path d="m400.34 26.65c-31.28 0-56.95 25.39-56.95 56.95v59.2h80.38c1.82 0 4.07 0 5.61.28 18.1.98 31.56 10.38 31.56 26.65 0 12.76-9.12 23.85-25.95 25.95v.56c18.52 1.26 32.54 11.64 32.54 27.49 0 17.25-15.71 28.48-36.33 28.48h-88.23v115.73h83.6c31.28 0 56.95-25.39 56.95-56.95v-284.34z" fill="url(#c)"/><path d="m415.63 173.38c0-7.57-5.33-12.48-11.64-13.47-.56 0-2.24-.28-3.09-.28h-29.74v27.49h29.74c.98 0 2.81 0 3.09-.28 6.31-.84 11.64-5.89 11.64-13.46z" fill="url(#d)"/><path d="m85.43 26.65c-31.28 0-56.95 25.39-56.95 56.95v140.55c15.99 7.86 32.54 12.76 49.1 12.76 19.78 0 30.3-11.92 30.3-28.2v-66.21h48.82v65.93c0 25.67-15.99 46.57-70.14 46.57-32.82 0-58.49-7.15-58.49-7.15v119.79h83.6c31.28 0 56.95-25.39 56.95-56.95v-284.04z" fill="url(#e)"/><path d="m242.81 26.65c-31.28 0-56.95 25.39-56.95 56.95v74.49c14.45-12.2 39.42-20.06 79.82-18.1 21.6.98 44.75 6.87 44.75 6.87v24.13c-11.64-5.89-25.39-11.22-43.2-12.48-30.72-2.24-49.1 12.76-49.1 39.14 0 26.65 18.52 41.66 49.1 39.14 17.81-1.26 31.56-6.87 43.2-12.48v24.13s-22.86 5.89-44.75 6.87c-40.4 1.82-65.37-5.89-79.82-18.1v131.16h83.6c31.28 0 56.95-25.39 56.95-56.95v-284.77z" fill="url(#f)"/></svg>