<svg enable-background="new 0 0 140 97.3" viewBox="0 0 140 97.3" xmlns="http://www.w3.org/2000/svg" xmlns:xlink="http://www.w3.org/1999/xlink"><linearGradient id="a" gradientTransform="matrix(.9998 .0211 -.0211 .9998 4.8976 27.9598)" gradientUnits="userSpaceOnUse" x1="56.9552" x2="147.8089" y1="25.7807" y2="-18.5269"><stop offset="0" stop-color="#fcb813"/><stop offset=".2247" stop-color="#ffca05"/><stop offset=".3933" stop-color="#f9a51a"/><stop offset=".5281" stop-color="#ffca05"/><stop offset=".6461" stop-color="#f9a51a"/><stop offset=".6535" stop-color="#faaa17"/><stop offset=".6872" stop-color="#fdbc0d"/><stop offset=".723" stop-color="#fec707"/><stop offset=".764" stop-color="#ffca05"/><stop offset=".7974" stop-color="#ffca05"/><stop offset="1" stop-color="#ffca05"/></linearGradient><g fill="#fff"><path d="m.1 56.3c0-2 0-3.7-.1-5.2h3.8l.2 2.6h.1c.9-1.4 2.5-3 5.4-3 2.3 0 4.1 1.3 4.9 3.3h.1c.6-1 1.3-1.7 2.2-2.2 1-.7 2.1-1.1 3.5-1.1 2.9 0 5.9 2 5.9 7.6v10.4h-4.3v-9.7c0-2.9-1-4.7-3.1-4.7-1.5 0-2.6 1.1-3.1 2.4-.1.4-.2 1-.2 1.5v10.6h-4.3v-10.3c0-2.5-1-4.2-3-4.2-1.7 0-2.8 1.3-3.2 2.5-.2.4-.3.9-.3 1.4v10.4h-4.5z"/><path d="m43 64.4c0 1.6.1 3.1.3 4.2h-4l-.3-2h-.1c-1.1 1.4-2.9 2.3-5.2 2.3-3.5 0-5.5-2.6-5.5-5.2 0-4.4 3.9-6.7 10.4-6.6v-.3c0-1.2-.5-3.1-3.6-3.1-1.7 0-3.5.5-4.7 1.3l-.9-2.9c1.3-.8 3.6-1.6 6.4-1.6 5.6 0 7.3 3.6 7.3 7.4v6.5zm-4.4-4.3c-3.1-.1-6.1.6-6.1 3.3 0 1.7 1.1 2.5 2.5 2.5 1.8 0 3.1-1.2 3.5-2.4.1-.3.1-.7.1-1z"/><path d="m46.1 56.3c0-2 0-3.7-.1-5.2h3.9l.2 2.6h.1c.8-1.4 2.7-3 5.6-3 3.1 0 6.3 2 6.3 7.6v10.4h-4.4v-9.9c0-2.5-.9-4.4-3.4-4.4-1.8 0-3 1.3-3.5 2.6-.1.4-.2.9-.2 1.4v10.3h-4.5z"/><path d="m81.3 44v19.7c0 1.8.1 3.8.1 5h-4l-.2-2.8h-.1c-1 2-3.2 3.2-5.7 3.2-4.2 0-7.5-3.6-7.5-9 0-5.9 3.6-9.4 7.9-9.4 2.4 0 4.2 1 4.9 2.3h.1v-9zm-4.5 14.4c0-.4 0-.8-.1-1.2-.4-1.7-1.8-3.1-3.8-3.1-2.9 0-4.4 2.5-4.4 5.8 0 3.2 1.6 5.6 4.4 5.6 1.8 0 3.4-1.2 3.8-3.1.1-.4.1-.8.1-1.3z"/><path d="m84.4 68.6v-17.5h4.5v17.6h-4.5z"/><path d="m92 56.7c0-2.4 0-4.1-.1-5.7h3.9l.1 3.4h.1c.9-2.5 2.9-3.4 4.8-3.4.4 0 .7-.1 1 0v4c-.4-.1-.8-.1-1.3-.1-2.1 0-3.6 1.4-4 3.4-.1.4-.1.9-.1 1.4v9.1h-4.4z"/><path d="m103.9 68.6v-17.5h4.5v17.6h-4.5z"/></g><path d="m136.3 32.4c-2.2-2.5-4.6-1.4-6.4-.5-.8.4-6.5 3.6-6.5 3.6-3.1 1.3-5.5-.1-6.5-1.3-.1-.1-.2-.2-.2-.4l-.2-.4c-.3-.6-.7-1.2-1.3-1.9-.3-.3-.6-.7-.9-1-2.1-2.2-5.5-3.7-11.2-.9-2.7 1.6-11.5 6.6-11.5 6.6-3.3 1.4-5.8-.3-6.6-1.5 0 0-.1-.1-.1-.1l-.1-.2-.6-.9c-.2-.4-.5-.8-.8-1.2-.3-.3-.6-.7-.9-1-2.1-2.1-5.5-3.6-11.2-1-3.4 1.9-11.4 6.5-11.4 6.5-3.3 1.9-5.8 3.3-5.8 3.3l3 3.7c1.3 1.2 3.6 3.2 7.3 1.5 0 0 10.2-5.9 10.2-5.9 8.7-4.8 13-.2 14.9 2.8.1.1.1.2.2.3s0 .1.1.1l.2.4c.9 1.4 2.4 2.3 4.1 2.3 1 0 1.6-.3 2.6-.9l9.8-5.7c8.8-4.8 13.2 0 15 3.1.1.3.3.5.5.7.9 1.3 2.2 2.1 3.8 2 1.1 0 2.3-.7 2.4-.8l11.8-6.8c0 .2-1.2-1.6-3.7-4.5z" fill="url(#a)"/></svg>