<svg enable-background="new 0 0 140 97.3" viewBox="0 0 140 97.3" xmlns="http://www.w3.org/2000/svg"><path d="m44 56.8 4-11.1 1.4 11.1h4.3l-2.3-16.3h-5.3l-3.5 9.8-3.5-9.8h-5.2l-2.4 16.3h4.3l1.4-11.1 4 11.1z"/><path d="m66.6 44.7 5.6 12.1-2.2 4.8h4.8l7.6-16.9h-4.9l-3 8.5-2.9-8.5z"/><path d="m140 56.8-5-6.5 4.6-5.6h-5.2l-4.1 5.3v-10.9h-4.4v17.7h4.4v-6.1l4.6 6.1z"/><path d="m87.7 47.6v6.4c.8.2 4.2.9 4.2-3.4 0-4.1-3.3-3.3-4.2-3z" fill="none"/><path d="m83.1 56.2s2.4.9 5.7.9 7.6-1 7.6-6.7-5.7-5.9-6.4-5.9c-1.3 0-2.1.3-2.4.5v-5.9h-4.5zm4.6-2.2v-6.4c.9-.3 4.2-1.1 4.2 3 0 4.3-3.4 3.6-4.2 3.4z"/><path d="m105.4 51.2c-.9 0-4.2.1-4.2 1.9 0 1.6 3.3 1.4 4.2 1.2 0-.5 0-1.8 0-3.1z" fill="none"/><path d="m98.9 47.7c6.5-1.9 6.5.4 6.5.7v.4c-5.3 0-8.4 1.6-8.4 4.3 0 2.8 2.9 4 6.8 4s5.9-.9 5.9-.9 0-4.9 0-7.6-1.7-4.4-5.9-4.4c-4.1 0-5.9 1-5.9 1zm2.2 5.4c0-1.8 3.3-1.9 4.2-1.9v3.1c-.9.1-4.2.4-4.2-1.2z"/><path d="m62.7 51.2c-.9 0-4.2.1-4.2 1.9 0 1.6 3.3 1.4 4.2 1.2 0-.5 0-1.8 0-3.1z" fill="none"/><path d="m56.2 47.7c6.5-1.9 6.5.4 6.5.7v.4c-5.3 0-8.4 1.6-8.4 4.3 0 2.8 2.9 4 6.8 4s5.9-.9 5.9-.9 0-4.9 0-7.6-1.7-4.4-5.9-4.4-5.9 1-5.9 1zm2.3 5.4c0-1.8 3.3-1.9 4.2-1.9v3.1c-1 .1-4.2.4-4.2-1.2z"/><path d="m119.7 56.8h4.5v-7.7c0-4-2.9-4.9-6.4-4.9s-6.4 1-6.4 1v11.6h4.5v-9.2c3.5-1 3.8.7 3.8 1.5z"/><path d="m13.6 36.1c6.9 0 12.5 5.6 12.5 12.5s-5.6 12.5-12.5 12.5-12.5-5.6-12.5-12.5c0-6.9 5.6-12.5 12.5-12.5m0-1.1c-7.5 0-13.6 6.1-13.6 13.7 0 7.5 6.1 13.6 13.6 13.6s13.6-6.1 13.6-13.6c.1-7.6-6-13.7-13.6-13.7z" fill="#231f20"/><g fill="none"><path d="m4.3 48.4c.1-.1.4-.3.4-.4s-.2-.1-.4-.1c-.2.1-.8.3-.7.5s.6.9.9.9.2-.3.1-.4c0 0-.4-.4-.3-.5z"/><path d="m10.9 44c.3-.3.4-.4.4-.4s-.5 0-.7 0c.1.1.1.1.1.2 0 .2-.1.3-.3.3h-.1c.1 0 .3.2.6-.1z"/><path d="m7.6 51.4c-.1 0-.2.1-.4.2-.1.1-.2.2-.2.2.2.4.7.7.7.7-.1-.3-.1-.8-.1-1.1z"/><path d="m12.1 51.9c0-.2-.8-.3-.8-.3s.2.7.2.8-.6.1-.6.1c0 .2-.1.7-.1.7.9-.4 1.3-1 1.3-1.3z"/><path d="m8.6 53.8s.2.6.3.7c.2.1.2-.3.4-.5.1 0-.4 0-.7-.2z"/></g><path d="m7.8 43.9s.3-1.1.8-1.5c.4-.4 2-1.5 4.4-2.3.3-.1.6 0 .6 0v.2c0 .2-.2.3-.2.3.5.1.8-.3.9-.7s.4-2 .9-2c1.4.1 2.4 4.6 2.3 4.8-.1.1-.6 0-.6 0 .9 1.4 2 1.4 2.3 1.1.3-.2.1-.9.1-.9 2.7 1.6 2.6 3.6 2.6 3.6.8-3.2-1.1-4.6-1.1-4.6.7 0 1.6.4 1.6.4-1.2-1.6-3.5-2.4-3.5-2.4s-2.8-3.1-3.7-3c-.7.1-1.2 1.5-1.4 2.4-.1 0-.3 0-.6 0-.2-.2-1-1.2-1.4-.9-.1.1-.2 1-.2 1.4-1.4.5-3.6 1.5-4.1 2.3-.4.7-.5 1.2-.5 1.2s-2.8 1.8-3.4 3.7c.1.1 1.9-2.1 4.2-3.1z"/><path d="m16.6 42.4c0-1.4-.7-2.6-1.1-2.6-.4-.1-.5 1.3-.5 1.3 1 .6 1.6 1.3 1.6 1.3z"/><path d="m9.9 42.2c-.6.3-.3.6-.3.6s-.1-.3.6-.5c1.2-.3 2.3-.7 2.3-1s-.8-.4-.8-.4c.1.3-1.3.9-1.8 1.3z"/><path d="m9.5 45.4s.3-.8.6-.9c0 0 .4.1.7 0 .2-.1.7-.7.9-.7 0 0-.5 2.1-2.4 2 0 0 1.4.8 2.1.2s.2-1 1.1-1.9.3-.9.3-.9-.3-.1-.3-.1.1-.2.4-.3 1.7-.8 1.8-1.2c0-.4-1.1-.8-1.6-.8 0 0 .5.2.5.5s-1.5.9-1.5 1.7c0 0-.5 0-.9 0-.4-.1-.8 0-1.2.2-.4.3-.4-.3-.4-.4 0 0-.8.5.2 1.1 0 0-.4.4-.4.5-.2.3-.4.9.1 1zm.9-1.3c.2 0 .3-.1.3-.3 0-.1 0-.2-.1-.2h.7c-.1 0-.2.1-.4.4-.3.3-.5.1-.5.1z"/><path d="m8.2 48.1s0-.7-.7-.6c-1.1.3-1.5 2.3-1.5 2.3 1.2-2.4 2.2-1.7 2.2-1.7z"/><path d="m8.6 49.9c.6-1-.1-1.6-1.1-1.1s-1.2 1.8-1.2 1.8c1.9-2.1 2.3-.7 2.3-.7z"/><path d="m6.1 48c.7-1.1 1.5-1.1 1.5-1.1-.9-.7-1.5 1.1-1.5 1.1z"/><path d="m17.7 48.6s-.7-.6-.6-1.8c.1-1.1.3-2.9-1.6-4 0 0 .8 1.2.5 2.4s-1.3 3.2-1.2 3.9c.2 1.5 1.7 1.8 1.6 3.8 0 0 .9-1.1.7-2.4s-1.3-1.8-.8-2.9c0 0 .6.9 1.4 1z"/><path d="m23.3 43.2s1.7 4.6-.2 8.7c0 0 .1-.6-.4-1.8-.5-1.3-.3-2.9-.1-3.2 0 0-.9.9-.9 2.5.1 1.5.5 5.9-2.7 7.5 0 0 1.2-2.2.7-4.7 0 0 .4.2.6.7 0 0 .8-2.2-.3-5 0 0 .6.1 1 .4 0 0 .4-2-1.8-3.3-.6-.3-.5-.5-.5-.5s-.2.4.2.9c.4.4.9 1.3.8 1.8 0 0-.6-.4-1.5-.3 0 0 1.7 1.4 1.4 4.4 0 0-.4-.5-1.5-.7 0 0 1.2 2.3.1 4.5 0 0-.1-.8-.4-1.3 0 0-.3 1.6-2.2 2.2 0 0 1.6-1.9-.3-2.9-1.8-1-3.4 1.2-3.7 3.1 0 0-2.1.2-2.4-.7-.2-.9.4-1.2.4-1.2s.3.2 1.1-.1 2.3-1.3 2.2-2.5c-.2-1.2-2-2.4-3.5-1.9s-2.3 1.8-3.1 1.8-1.7-1.2-1.6-1.8c.3-.8.8-1 1-2 0 0-.3 0-.4-.1-.2-.1-.7-.3-.9-.2-.3.1-.9.5-.9.4s.1-.5.1-.5-.7.7-.6 1 .7 1 1.3 1.4c0 0 .1.9.9 1.7.5.5.9.6 1.3.5.2.2.7 1 1.6 1.1 0 0-.2-1 0-1.8 0 0 .1 0 .1-.1.1-.1 1.8-1.7 3-.2 0 0-.6.2-.8.9s-.3 2.4-2.2 1.3c0 0-.2 1 .4 1.6 0 0-.1 1.1 1.1 1.6 1.2.6 2 .1 2.8.5 0 0-.1-1.6.6-2.5.7-1 1.6-1.3 2-.9s.7 1.8-1 3.2c0 0 2 .3 3.4-.8 0 0-.2 1.8-1.5 3.4 5-1.1 8.7-5.5 8.7-10.8 0-1.8-.5-3.7-1.4-5.3zm-18.8 6.2c-.3 0-.8-.8-.9-.9-.1-.2.5-.5.7-.5.2-.1.4 0 .4.1s-.4.3-.4.4c-.1.1.3.4.4.5s.1.4-.2.4zm2.5 2.4c.1 0 .2-.1.2-.2.2-.1.3-.2.4-.2v1.1c.1.1-.4-.2-.6-.7zm3.9.7s.6 0 .6-.1-.2-.8-.2-.8.8.1.8.3-.4.9-1.3 1.3c-.1 0 .1-.5.1-.7zm-1.9 2c-.2-.1-.3-.7-.3-.7.2.2.7.2.7.2-.3.3-.3.6-.4.5z"/><path d="m15.3 43.6s-1.3-.7-1.9 0c-.5.7-.2 1.9-.5 2.7-.7-.6-1.6.4-1.8.8-.2.3-.4.4-.4.4-1.6.3-1.2-1-1.8-1.3-.5-.4-1.4.2-1.4.2.9-.2 1.1.4 1.1.7 0 .2.2 1 .4 1.4s1.2.1 2 .2 1.3 1.1 1.3 1.1c.5-1.2-.8-1.7-.8-1.7s.4-.7.8-.5c1.4.8 1.1 4 1.1 4 1.2-2.3.7-3.7 0-4.5.1-.9.5-3.2 1.9-3.5z"/></svg>