<svg enable-background="new 0 0 140 97.3" viewBox="0 0 140 97.3" xmlns="http://www.w3.org/2000/svg"><g clip-rule="evenodd" fill-rule="evenodd"><path d="m72.8 69.9c-26.3 1.5-72.6-2.7-72.4-23 .3-21.3 45.6-29 66.1-28.5v-3.2l5.9 3 5.9 3-5.9 3-5.9 3v-3.2c-19.6 0-60.7 6.3-60.9 24.2-.1 14.9 40.3 19.2 67.2 21.7z" fill="#f08519"/><path d="m71.9 70.3c-3.6.2-7.6.3-11.7.2-12.9-.2-27.7-1.6-39.3-5.1-11.8-3.5-20.4-9.1-20.9-17.6 0-.3 0-.6 0-.9v-.1c.2-10.7 11.5-17.9 25.4-22.5 13.7-4.5 30-6.4 40.4-6.2h.3v-3.5l13 6.7-11 5.7c3.6-.2 7.6-.3 11.7-.2 12.9.2 27.7 1.6 39.3 5.1 11.8 3.5 20.4 9.1 20.8 17.6v.9.1c-.2 10.7-11.5 17.9-25.4 22.5-13.7 4.5-30 6.4-40.4 6.2h-.3v3.5l-13-6.7zm-5.3-42.6h-.5v-.6-2.6c-11.6.1-30.2 2.3-43.7 7.6-9.4 3.7-16.3 9-16.4 16.2s9.9 11.8 23.1 15c13.4 3.2 30.2 4.9 43.6 6.2l.6.1h.5v.6 2.6c11.6-.1 30.2-2.3 43.7-7.6 9.4-3.7 16.3-9 16.4-16.2s-9.9-11.8-23.1-15c-13.4-3.2-30.2-4.9-43.6-6.2zm13.2-.1c-2.3 0-4.6 0-6.7 0 12.3 1.2 26.3 2.8 37.9 5.6 13.6 3.3 23.8 8.2 23.7 15.8-.1 7.5-7.2 13-16.9 16.9-13.7 5.5-32.8 7.7-44.4 7.7h-.4v-3l-10.5 5.4 10.6 5.4v-3h1.1c10.4.1 26.5-1.7 40.2-6.2 13.6-4.5 24.6-11.5 24.8-21.7v-.1c0-.3 0-.6 0-.9-.5-8.1-8.8-13.5-20.3-16.9-11.6-3.4-26.2-4.9-39.1-5zm-19.6 42.2h6.7c-12.3-1.2-26.3-2.8-37.9-5.6-13.6-3.4-23.8-8.3-23.7-15.9.1-7.5 7.2-13 16.9-16.9 13.7-5.5 32.8-7.7 44.4-7.7h.4v3l10.6-5.4-10.6-5.4v3h-1.1c-10.4-.1-26.5 1.7-40.2 6.2-13.6 4.3-24.7 11.4-24.9 21.6v.1.9c.5 8.1 8.8 13.5 20.3 16.9 11.6 3.6 26.2 5 39.1 5.2z" fill="#fefefe"/><path d="m67.2 27.4c26.3-1.5 72.6 2.7 72.4 23-.3 21.3-45.6 29-66.1 28.5v3.2l-5.9-3-5.9-3 5.9-3 5.9-3v3.2c19.6 0 60.7-6.3 60.9-24.2.1-14.9-40.3-19.2-67.2-21.7z" fill="#f08519"/><g fill="#fefefe"><path d="m19.7 38.8h9.1c1.7 0 3 .2 3.9.6s1.6 1 2.1 1.7c.5.8.8 1.7.8 2.8.1 1.4-.3 2.7-1.1 3.8s-1.8 1.9-3 2.4-2.9.7-5.1.7h-2.7l-1.3 7h-6.2l2.4-13.1h-1.4zm4.7 8.2h2.1c1 0 1.8-.3 2.4-.8s.9-1.2.9-2c0-1.1-.7-1.7-2-1.7h-2.4z"/><path d="m55.8 57.8h-6.8l-4.3-7.3-1.4 7.3h-5.4l2.5-13.1h-1.6l2.8-5.9h9.3c2 0 3.5.5 4.5 1.5.9 1 1.2 2.4.9 4.1-.2 1.1-.6 2.1-1.2 2.9s-2.8 2.6-4.3 2.7zm-10.3-11.3h2.3c.7 0 1.3-.2 1.7-.5.5-.3.8-.8.9-1.4.2-1.2-.3-1.8-1.7-1.8h-2.5z"/><path d="m68.9 38.8-3.4 19h-5.8l2.4-13.2h-1.5l2.5-5.8z"/><path d="m69.9 57.8 5.8-14.5h-1.7l3.5-4.5h6.3l2.2 9.8 6.8-9.8h6.1v19h-5.9v-11l-7.5 11.1-2.5-.1-3.1-11-4.2 11z"/><path d="m123.8 57.8h-6.6l-.3-3.1h-7.1l-1.7 3.1h-7.1l9.3-14.5h-1.8l4.7-4.5h7.1zm-7.3-7.1-.7-6.9h-.1l-3.7 6.9z"/></g></g></svg>