<svg enable-background="new 0 0 592.2 181.5" viewBox="0 0 592.2 181.5" xmlns="http://www.w3.org/2000/svg"><g clip-rule="evenodd" fill-rule="evenodd"><path d="m553.6 3.2h-37.1c-11.4 0-20.1 3.2-25.2 14.6l-71.1 161.4h50.2s8.3-21.8 10.2-26.5h61.4c1.5 6.1 5.8 26.5 5.8 26.5h44.4zm-385.2 0-47.1 119.9-4.9-24.3c-8.6-28.2-36.1-58.5-66.4-73.8l43 153.9h50.7l75.5-175.7zm40.1 175.7 30.1-176h48.1l-30.1 176zm222.1-171.6-6.6 38.1-4.4-1.9c-8.7-3.6-20.1-7-35.9-6.8-18.7 0-27.4 7.8-27.4 15.3 0 8.3 10.2 13.6 26.9 21.6 27.7 12.6 40.5 27.9 40.3 47.8-.5 36.6-33 60.2-83.5 60.2-21.6-.2-42.2-4.4-53.4-9.5l6.6-39.3 6.3 2.9c15.8 6.6 26 9.2 45.1 9.2 13.8 0 28.6-5.3 28.6-17.2.2-7.8-6.1-13.1-24.8-21.8-18.2-8.5-42.2-22.6-42-47.8.2-34.2 33.5-58 81.1-58 18.5-.1 33.6 3.8 43.1 7.2zm63.8 109.2c3.9-10 19.2-49 19.2-49-.5.5 3.9-10.2 6.3-16.7l3.2 15s9.2 42 11.2 50.7z" fill="#005bac"/><path d="m77.9 2.9h-77.4l-.5 3.9c59.9 14.6 100 49.8 116.5 92l-17-80.8c-2.9-11.2-11.2-14.6-21.6-15.1z" fill="#f6ac1a"/></g></svg>