<svg enable-background="new 0 0 912.27 849.7" viewBox="0 0 912.27 849.7" xmlns="http://www.w3.org/2000/svg"><path clip-rule="evenodd" d="m456.14 76.79c43.74 0 87.48 6.25 131.21 18.75-31.24 31.24-74.98 56.23-131.21 56.23-49.99 0-99.98-24.99-124.97-56.23 37.49-12.5 81.23-18.75 124.97-18.75zm143.71 25c31.24 12.49 62.48 24.99 87.48 43.74-24.99 62.48-118.72 106.22-231.19 106.22s-199.95-43.74-231.19-99.98c31.24-24.99 56.23-37.49 87.48-49.98 31.24 37.49 87.48 62.48 143.71 62.48 62.48 0 118.72-24.99 143.71-62.48zm106.22 56.23c31.24 25 56.24 56.24 74.98 87.48-43.75 62.49-174.96 106.23-324.92 106.23s-274.92-43.74-318.67-106.23c18.75-31.24 43.74-62.48 74.98-87.48 31.24 62.49 131.21 112.48 243.69 112.48 118.73 0 218.7-49.99 249.94-112.48zm87.48 106.23c24.99 43.74 37.49 93.72 37.49 143.71h-743.56c0-49.98 12.5-99.97 37.49-143.71 49.99 62.48 181.21 106.21 331.17 106.21 156.2 0 281.17-43.73 337.41-106.21zm37.49 162.45c0 49.99-12.5 99.98-37.49 143.72-49.98-62.49-181.21-106.22-337.41-106.22-149.96 0-281.18 43.74-331.17 106.22-24.99-43.74-37.49-93.72-37.49-143.72zm-49.98 162.47c-18.75 37.49-49.99 68.73-81.23 93.73-25-68.74-124.97-118.72-243.69-118.72s-218.7 49.99-249.94 112.47c-24.99-24.99-49.99-56.23-74.98-87.48 49.99-62.49 174.96-106.22 324.92-106.22s281.17 43.73 324.92 106.22zm-99.98 106.22c-24.99 18.75-56.24 31.25-81.23 43.74-31.25-43.74-87.48-68.73-149.96-68.73s-112.47 24.99-143.71 62.48c-31.24-12.5-56.24-24.99-81.23-49.98 24.99-56.24 118.72-99.98 224.94-99.98 112.47 0 212.45 49.98 231.19 112.47zm-99.97 49.99c-37.49 12.49-81.23 18.74-124.97 18.74s-93.73-6.25-131.22-24.99c25-31.24 68.73-56.23 124.97-56.23 56.23 0 106.22 24.99 131.22 62.48z" fill="#3a53a4" fill-rule="evenodd"/><path d="m456.14 76.79c43.74 0 87.48 6.25 131.21 18.75-31.24 31.24-74.98 56.23-131.21 56.23-49.99 0-99.98-24.99-124.97-56.23 37.49-12.5 81.23-18.75 124.97-18.75zm143.71 25c31.24 12.49 62.48 24.99 87.48 43.74-24.99 62.48-118.72 106.22-231.19 106.22s-199.95-43.74-231.19-99.98c31.24-24.99 56.23-37.49 87.48-49.98 31.24 37.49 87.48 62.48 143.71 62.48 62.48 0 118.72-24.99 143.71-62.48zm106.22 56.23c31.24 25 56.24 56.24 74.98 87.48-43.75 62.49-174.96 106.23-324.92 106.23s-274.92-43.74-318.67-106.23c18.75-31.24 43.74-62.48 74.98-87.48 31.24 62.49 131.21 112.48 243.69 112.48 118.73 0 218.7-49.99 249.94-112.48zm87.48 106.23c24.99 43.74 37.49 93.72 37.49 143.71h-743.56c0-49.98 12.5-99.97 37.49-143.71 49.99 62.48 181.21 106.21 331.17 106.21 156.2 0 281.17-43.73 337.41-106.21zm37.49 162.45c0 49.99-12.5 99.98-37.49 143.72-49.98-62.49-181.21-106.22-337.41-106.22-149.96 0-281.18 43.74-331.17 106.22-24.99-43.74-37.49-93.72-37.49-143.72zm-49.98 162.47c-18.75 37.49-49.99 68.73-81.23 93.73-25-68.74-124.97-118.72-243.69-118.72s-218.7 49.99-249.94 112.47c-24.99-24.99-49.99-56.23-74.98-87.48 49.99-62.49 174.96-106.22 324.92-106.22s281.17 43.73 324.92 106.22zm-99.98 106.22c-24.99 18.75-56.24 31.25-81.23 43.74-31.25-43.74-87.48-68.73-149.96-68.73s-112.47 24.99-143.71 62.48c-31.24-12.5-56.24-24.99-81.23-49.98 24.99-56.24 118.72-99.98 224.94-99.98 112.47 0 212.45 49.98 231.19 112.47zm-99.97 49.99c-37.49 12.49-81.23 18.74-124.97 18.74s-93.73-6.25-131.22-24.99c25-31.24 68.73-56.23 124.97-56.23 56.23 0 106.22 24.99 131.22 62.48z" fill="none"/><path clip-rule="evenodd" d="m456.14 108.04 62.48 206.19 193.7 6.25-156.21 131.22 62.49 212.45-162.46-124.97-156.21 124.97 56.23-212.45-156.21-131.22 193.7-6.25z" fill="#fff" fill-rule="evenodd"/><path d="m456.14 108.04 62.48 206.19 193.7 6.25-156.21 131.22 62.49 212.45-162.46-124.97-156.21 124.97 56.23-212.45-156.21-131.22 193.7-6.25z" fill="none"/><path clip-rule="evenodd" d="m37.49 382.96 6.25 31.24h24.99l-18.74 18.76 6.25 24.99-18.75-18.75-18.74 18.75 6.25-24.99-25-18.76h31.24z" fill="#3a53a4" fill-rule="evenodd"/><path d="m37.49 382.96 6.25 31.24h24.99l-18.74 18.76 6.25 24.99-18.75-18.75-18.74 18.75 6.25-24.99-25-18.76h31.24z" fill="none"/><path clip-rule="evenodd" d="m874.78 370.46 6.25 31.25h31.24l-24.99 18.75 6.25 24.99-18.75-18.75-18.74 18.75 6.24-24.99-18.74-18.75h25z" fill="#3a53a4" fill-rule="evenodd"/><path d="m874.78 370.46 6.25 31.25h31.24l-24.99 18.75 6.25 24.99-18.75-18.75-18.74 18.75 6.24-24.99-18.74-18.75h25z" fill="none"/><g fill="#3a53a4"><path d="m49.42 335.7-5.66.81-4.66 18.08 4.68 3.47c1.83 1.36 3.02 2.42 3.58 3.19s.67 1.82.33 3.16c-.29 1.13-.93 2.04-1.92 2.71-.98.67-1.96.89-2.92.64-.56-.14-1.11-.39-1.65-.75s-1.28-.9-2.22-1.64l-23.57-18.21c-.68-.52-1.49-1.14-2.44-1.87s-1.71-1.44-2.28-2.14-.97-1.52-1.19-2.47-.17-2.04.15-3.28c.32-1.25.81-2.24 1.46-2.97s1.39-1.26 2.21-1.6 1.67-.58 2.55-.73 2.05-.33 3.51-.54l29.33-4.84c2.24-.39 3.81-.47 4.72-.24.95.24 1.7.9 2.27 1.96s.69 2.2.38 3.42c-.18.71-.46 1.28-.82 1.73s-.79.79-1.27 1.03c-.49.24-1.19.45-2.12.63s-1.75.33-2.45.45zm-15.92 14.93 3.42-13.29-18.59 2.36z"/><path d="m59.45 283.68c2.39.91 4.27 2.39 5.67 4.45 1.39 2.06 2.14 4.58 2.24 7.57.1 2.98-.53 6.25-1.87 9.78-1.61 4.24-3.67 7.45-6.19 9.64-1.8 1.55-3.81 2.6-6.04 3.15s-4.18.51-5.84-.13c-.97-.37-1.66-1.05-2.07-2.04s-.4-2.06.03-3.19c.35-.92.91-1.59 1.69-2.02s1.78-.67 3.01-.72c1.46-.07 2.73-.26 3.82-.58 1.08-.31 2.12-.94 3.1-1.89.98-.94 1.83-2.35 2.54-4.23.98-2.58 1.22-4.88.73-6.91s-1.56-3.36-3.21-3.98c-1.31-.5-2.53-.47-3.68.09-1.14.56-2.19 1.44-3.15 2.66-.95 1.21-2.11 2.88-3.47 5-1.83 2.83-3.59 5.12-5.27 6.86s-3.51 2.93-5.51 3.57-4.13.53-6.41-.34c-2.17-.82-3.85-2.2-5.04-4.13s-1.78-4.28-1.76-7.07c.02-2.78.66-5.83 1.91-9.12 1-2.64 2.17-4.8 3.5-6.5s2.73-2.99 4.21-3.88 2.87-1.42 4.19-1.59 2.49-.06 3.53.34c.95.36 1.67 1.05 2.15 2.07s.52 2.08.1 3.17c-.38 1-.89 1.66-1.55 2.01-.65.34-1.62.62-2.89.83-1.78.22-3.29.71-4.54 1.49s-2.33 2.38-3.25 4.8c-.85 2.25-1.09 4.23-.71 5.95s1.21 2.82 2.48 3.3c.79.3 1.56.33 2.31.07.75-.25 1.49-.71 2.21-1.37s1.36-1.37 1.91-2.12 1.42-2.01 2.6-3.77c1.44-2.22 2.84-4.2 4.22-5.92 1.37-1.72 2.77-3.1 4.19-4.14s2.96-1.68 4.62-1.93c1.68-.24 3.51.01 5.49.77z"/><path d="m78.98 244.08c2.28 1.15 4 2.82 5.18 5.01 1.17 2.19 1.65 4.78 1.44 7.76s-1.17 6.16-2.87 9.54c-2.04 4.05-4.42 7.04-7.15 8.97-1.95 1.36-4.07 2.2-6.34 2.52-2.28.32-4.21.08-5.8-.73-.93-.47-1.54-1.21-1.85-2.25-.31-1.03-.19-2.09.36-3.18.44-.88 1.07-1.49 1.89-1.84s1.84-.48 3.07-.4c1.46.08 2.75.02 3.86-.18s2.21-.72 3.28-1.56c1.08-.84 2.07-2.16 2.97-3.95 1.24-2.47 1.72-4.74 1.45-6.81-.28-2.07-1.21-3.51-2.78-4.3-1.25-.63-2.48-.73-3.68-.29s-2.34 1.22-3.41 2.33-2.4 2.65-3.97 4.63c-2.12 2.64-4.1 4.73-5.95 6.3-1.85 1.56-3.8 2.56-5.85 2.99s-4.17.1-6.34-.99c-2.07-1.04-3.6-2.58-4.59-4.63-.99-2.04-1.33-4.45-1.02-7.22s1.26-5.73 2.85-8.89c1.27-2.52 2.65-4.56 4.15-6.11s3.03-2.7 4.59-3.43c1.56-.74 3-1.12 4.33-1.16s2.48.2 3.48.7c.91.46 1.55 1.22 1.92 2.28.38 1.06.3 2.12-.22 3.16-.48.95-1.06 1.56-1.74 1.84s-1.66.46-2.93.54c-1.81.03-3.38.36-4.71 1.01-1.33.64-2.58 2.12-3.74 4.44-1.08 2.15-1.52 4.1-1.32 5.86.2 1.75.91 2.94 2.13 3.55.75.38 1.52.48 2.29.31s1.56-.55 2.35-1.14 1.5-1.23 2.13-1.92 1.62-1.86 2.98-3.49c1.66-2.06 3.26-3.88 4.81-5.45 1.54-1.57 3.07-2.8 4.59-3.68s3.12-1.36 4.8-1.44c1.66-.09 3.45.35 5.36 1.3z"/><path d="m69.42 202.4c2.62-3.99 5.61-6.92 8.97-8.8s6.89-2.66 10.59-2.33 7.39 1.7 11.08 4.12c2.73 1.79 4.94 3.82 6.64 6.09s2.84 4.74 3.42 7.43c.58 2.68.53 5.48-.14 8.39s-2 5.88-3.99 8.9c-1.98 3.01-4.19 5.41-6.64 7.2s-5.01 2.95-7.67 3.48-5.4.45-8.21-.23-5.54-1.89-8.18-3.63c-2.71-1.78-4.92-3.84-6.62-6.17s-2.82-4.83-3.35-7.48-.46-5.41.22-8.27c.65-2.87 1.95-5.77 3.88-8.7zm25.39.85c-2.58-1.7-5.12-2.71-7.6-3.04-2.49-.33-4.77.02-6.85 1.07s-3.83 2.66-5.27 4.85c-1.02 1.55-1.7 3.17-2.03 4.84s-.29 3.32.11 4.95 1.22 3.24 2.45 4.84 2.84 3.05 4.83 4.35c2 1.32 4 2.23 5.98 2.74s3.83.62 5.56.31c1.73-.3 3.28-.93 4.67-1.89 1.38-.95 2.59-2.21 3.61-3.76 1.31-1.99 2.05-4.12 2.23-6.39s-.36-4.52-1.62-6.76c-1.25-2.24-3.28-4.28-6.07-6.11z"/><path d="m137.93 162.27c1.02.87 1.89 2.08 2.62 3.65.72 1.56 1.15 3.42 1.3 5.57.14 2.15-.21 4.45-1.05 6.89s-2.3 4.88-4.37 7.31c-1.57 1.85-3.16 3.39-4.77 4.63s-3.27 2.19-5 2.85-3.58 1.04-5.57 1.13c-1.79.06-3.59-.11-5.4-.52s-3.56-1.06-5.25-1.94c-1.7-.88-3.34-2-4.93-3.36-2.59-2.2-4.56-4.58-5.91-7.15-1.35-2.56-2.1-5.23-2.25-7.99-.15-2.77.26-5.5 1.25-8.2s2.47-5.21 4.45-7.53c2.41-2.83 5.08-4.92 8-6.25s5.64-1.93 8.17-1.81 4.47.76 5.83 1.91c.75.63 1.16 1.48 1.24 2.54s-.22 1.99-.91 2.8c-.77.91-1.55 1.42-2.33 1.54s-1.89.04-3.33-.22c-2.38-.44-4.5-.36-6.35.21-1.85.58-3.56 1.78-5.12 3.61-2.48 2.91-3.44 6.1-2.87 9.56s2.72 6.78 6.47 9.97c2.5 2.13 4.91 3.52 7.22 4.17s4.47.62 6.49-.08c2.01-.7 3.82-1.99 5.42-3.87 1.73-2.04 2.73-4.16 3-6.36s-.19-4.42-1.38-6.67c-.59-1.02-.96-1.99-1.12-2.89s.19-1.84 1.03-2.83c.72-.84 1.6-1.34 2.66-1.48 1.03-.15 1.96.12 2.76.81z"/><path d="m151.35 161.74-23.36-23.62c-1.21-1.23-1.82-2.45-1.81-3.67 0-1.22.49-2.3 1.46-3.26 1-.99 2.11-1.48 3.32-1.49 1.22 0 2.44.61 3.67 1.86l23.36 23.62c1.23 1.24 1.83 2.47 1.82 3.7s-.52 2.33-1.51 3.32c-.95.94-2.05 1.41-3.28 1.4s-2.46-.63-3.67-1.86z"/><path d="m187.98 128.45-5.07-2.65-14.33 11.97 1.78 5.55c.69 2.16 1.04 3.72 1.05 4.68.01.95-.52 1.87-1.58 2.76-.9.75-1.94 1.11-3.14 1.08-1.19-.03-2.11-.42-2.75-1.19-.37-.44-.67-.96-.9-1.57s-.52-1.48-.85-2.63l-8.54-28.55c-.25-.82-.54-1.8-.89-2.95s-.55-2.17-.61-3.07.1-1.8.48-2.7 1.05-1.76 2.03-2.58c.99-.83 1.97-1.35 2.92-1.56s1.86-.21 2.73-.01c.86.2 1.7.5 2.5.89s1.86.93 3.16 1.61l26.66 13.2c2.05.99 3.38 1.84 3.98 2.56.63.75.86 1.72.7 2.92-.16 1.19-.72 2.19-1.68 3-.56.47-1.12.78-1.67.93s-1.1.18-1.64.09-1.23-.33-2.09-.72c-.86-.4-1.61-.75-2.25-1.06zm-21.63 2.84 10.53-8.8-16.49-8.94z"/><path d="m204.53 79.39-8.37 5.76 17.35 25.21c1 1.45 1.39 2.77 1.16 3.96s-.9 2.17-2.02 2.94c-1.14.79-2.31 1.07-3.52.85s-2.3-1.04-3.29-2.48l-17.34-25.2-8.37 5.76c-1.31.9-2.46 1.3-3.46 1.21s-1.8-.57-2.4-1.44c-.62-.9-.78-1.84-.48-2.82s1.08-1.9 2.34-2.76l24.4-16.8c1.33-.91 2.5-1.32 3.51-1.23 1.02.09 1.82.58 2.42 1.44.6.87.75 1.8.46 2.78-.28.98-1.08 1.92-2.39 2.82z"/><path d="m231.33 99.04-16.83-28.66c-.87-1.49-1.16-2.82-.86-4s1.04-2.11 2.21-2.8c1.21-.71 2.4-.91 3.58-.62 1.18.3 2.21 1.2 3.09 2.7l16.82 28.66c.88 1.5 1.17 2.85.86 4.03s-1.07 2.13-2.28 2.84c-1.15.68-2.32.86-3.51.54-1.18-.3-2.21-1.2-3.08-2.69z"/><path d="m250.08 45.32c4.29-2.07 8.37-3.05 12.22-2.94s7.28 1.26 10.28 3.44 5.47 5.26 7.39 9.23c1.42 2.94 2.27 5.82 2.57 8.64.29 2.82 0 5.53-.88 8.13s-2.36 4.97-4.43 7.13c-2.07 2.15-4.74 4.01-8 5.59-3.24 1.56-6.37 2.49-9.39 2.76-3.02.28-5.81-.04-8.37-.96s-4.86-2.39-6.93-4.42c-2.06-2.03-3.78-4.47-5.16-7.32-1.41-2.92-2.25-5.82-2.51-8.69-.26-2.88.06-5.59.97-8.14s2.38-4.88 4.43-6.98c2.04-2.12 4.64-3.94 7.81-5.47zm21.35 13.78c-1.35-2.79-3-4.96-4.97-6.53s-4.11-2.44-6.43-2.61-4.66.31-7.01 1.45c-1.68.81-3.08 1.85-4.23 3.11-1.14 1.27-1.96 2.7-2.45 4.3s-.62 3.41-.38 5.42.88 4.08 1.91 6.23c1.04 2.16 2.28 3.98 3.72 5.44s2.97 2.5 4.61 3.13 3.3.89 4.98.78 3.36-.56 5.03-1.37c2.15-1.04 3.88-2.48 5.2-4.34s2.02-4.07 2.09-6.64c.08-2.57-.62-5.36-2.07-8.37z"/><path d="m295.24 31.54 25.24 17.34-8.48-23.6c-.55-1.53-.61-2.81-.16-3.84.44-1.02 1.27-1.76 2.49-2.19 1.26-.45 2.39-.43 3.39.08 1 .5 1.78 1.52 2.33 3.06l11.21 31.2c1.25 3.48.3 5.79-2.84 6.92-.79.28-1.53.43-2.24.45-.7.02-1.41-.1-2.12-.35s-1.41-.6-2.1-1.03c-.69-.44-1.38-.88-2.08-1.34l-24.73-17.21 8.35 23.24c.54 1.52.57 2.8.08 3.85s-1.33 1.79-2.53 2.22c-1.24.45-2.37.41-3.4-.11s-1.81-1.52-2.35-3.02l-11-30.6c-.47-1.3-.68-2.38-.63-3.23.08-.95.46-1.83 1.14-2.66s1.52-1.42 2.53-1.78c.79-.28 1.5-.41 2.15-.37.65.03 1.25.17 1.82.42s1.18.6 1.85 1.08c.67.46 1.37.96 2.08 1.47z"/><path d="m371.66 3.96c4.71-.69 8.88-.41 12.51.85s6.56 3.38 8.77 6.36 3.64 6.66 4.28 11.02c.48 3.23.43 6.23-.13 9.01s-1.65 5.28-3.26 7.49c-1.61 2.22-3.73 4.04-6.34 5.47-2.62 1.43-5.71 2.41-9.28 2.94-3.55.52-6.81.46-9.77-.18s-5.53-1.78-7.69-3.42-3.92-3.74-5.28-6.29-2.27-5.4-2.73-8.53c-.47-3.21-.41-6.23.2-9.05s1.72-5.32 3.35-7.48c1.62-2.16 3.72-3.94 6.3-5.34s5.6-2.34 9.07-2.85zm16.27 19.54c-.45-3.06-1.38-5.64-2.79-7.73s-3.2-3.56-5.37-4.42-4.55-1.09-7.14-.71c-1.84.27-3.5.84-4.97 1.71s-2.68 2-3.63 3.38c-.95 1.39-1.61 3.07-1.98 5.06s-.39 4.17-.04 6.53c.35 2.38.99 4.48 1.93 6.31s2.09 3.29 3.47 4.38 2.88 1.84 4.52 2.24 3.38.47 5.22.19c2.36-.35 4.45-1.21 6.27-2.59s3.15-3.28 3.98-5.72c.85-2.44 1.02-5.32.53-8.63z"/><path d="m434.45 6.59-18.32.69.41 10.78 15.32-.58c1.42-.05 2.49.2 3.21.75.72.56 1.1 1.32 1.14 2.3s-.29 1.76-.98 2.36-1.73.93-3.13.98l-15.32.58.53 13.9c.07 1.76-.32 3.09-1.15 3.98s-1.93 1.36-3.29 1.41c-1.38.05-2.52-.34-3.42-1.17s-1.38-2.12-1.45-3.86l-1.23-32.43c-.05-1.23.11-2.23.48-3.03.37-.79.97-1.38 1.8-1.77s1.91-.61 3.22-.65l21.93-.83c1.48-.06 2.59.21 3.34.78.74.58 1.13 1.35 1.17 2.33.04 1-.29 1.81-.99 2.44-.7.64-1.79.98-3.27 1.04z"/><path d="m495 9.02-10.14-.59-1.78 30.59c-.1 1.76-.61 3.04-1.51 3.85-.9.8-2.03 1.16-3.39 1.09-1.38-.08-2.47-.58-3.29-1.49-.81-.91-1.17-2.24-1.07-3.98l1.78-30.59-10.14-.6c-1.59-.09-2.75-.48-3.48-1.17s-1.07-1.56-1.01-2.61c.06-1.09.52-1.93 1.36-2.52s2.02-.83 3.55-.75l29.54 1.72c1.61.09 2.78.49 3.53 1.19s1.09 1.57 1.03 2.62-.51 1.88-1.34 2.47c-.85.61-2.06.86-3.64.77z"/><path d="m517.7 8.81-1.66 11.97 19.91 2.76 1.66-11.97c.24-1.71.83-2.93 1.79-3.67s2.12-1.01 3.48-.82c1.39.19 2.45.77 3.19 1.73s.99 2.31.75 4.04l-4.56 32.91c-.24 1.73-.85 2.96-1.84 3.69s-2.16 1.01-3.53.82c-1.39-.19-2.43-.78-3.14-1.76s-.94-2.32-.71-4.03l1.96-14.05-19.91-2.76-1.95 14.05c-.24 1.73-.85 2.96-1.84 3.7-.99.73-2.17 1.01-3.53.82-1.39-.19-2.43-.78-3.14-1.76s-.94-2.32-.71-4.03l4.56-32.9c.24-1.71.82-2.93 1.76-3.68.94-.74 2.11-1.01 3.52-.82 1.39.19 2.45.77 3.19 1.74.74.95.99 2.29.75 4.02z"/><path d="m589.01 24.31-20.43-4.74-2.34 10.07 18.81 4.36c1.38.32 2.35.85 2.9 1.58s.72 1.56.5 2.5-.73 1.62-1.54 2.05-1.92.49-3.32.16l-18.81-4.36-2.71 11.69 21.13 4.9c1.42.33 2.43.88 3.01 1.66.58.77.76 1.67.52 2.67-.23.97-.77 1.68-1.63 2.11-.86.44-2.01.49-3.43.16l-24.64-5.72c-1.98-.46-3.3-1.19-3.98-2.19s-.81-2.4-.39-4.2l7.16-30.87c.28-1.2.7-2.13 1.26-2.79.56-.67 1.3-1.08 2.2-1.23s2-.08 3.28.21l23.94 5.55c1.45.34 2.45.88 3.02 1.63s.74 1.6.52 2.56c-.23.97-.76 1.67-1.6 2.09-.84.45-1.99.49-3.43.15z"/><path d="m610.15 63.17 10.86-31.41c.56-1.63 1.39-2.72 2.49-3.25 1.09-.54 2.28-.58 3.57-.14 1.32.46 2.26 1.23 2.8 2.32s.53 2.46-.04 4.11l-10.86 31.41c-.57 1.65-1.41 2.74-2.51 3.27s-2.32.57-3.64.11c-1.27-.44-2.16-1.21-2.7-2.32-.55-1.1-.53-2.47.03-4.1z"/><path d="m653.8 44.04 6.3 29.99 10.17-22.94c.66-1.49 1.5-2.45 2.53-2.89s2.13-.39 3.32.13c1.22.54 2.02 1.34 2.4 2.4s.23 2.33-.43 3.82l-13.45 30.33c-1.5 3.38-3.78 4.4-6.84 3.05-.76-.34-1.41-.74-1.93-1.22-.52-.47-.95-1.05-1.29-1.72-.34-.68-.61-1.41-.81-2.2s-.39-1.6-.58-2.41l-6.02-29.56-10.02 22.6c-.65 1.47-1.52 2.42-2.6 2.85-1.08.42-2.2.38-3.36-.14-1.2-.53-1.99-1.34-2.38-2.42s-.26-2.35.39-3.81l13.19-29.76c.56-1.26 1.15-2.19 1.78-2.77.71-.63 1.6-1.01 2.66-1.13 1.06-.13 2.08.02 3.05.46.76.34 1.37.74 1.81 1.21s.78.99 1.02 1.56.44 1.25.59 2.06c.18.8.34 1.64.5 2.51z"/><path d="m698.65 61.02 10.34 6.3c2.69 1.64 4.86 3.27 6.5 4.9s2.87 3.55 3.67 5.77c2.11 5.69 1.17 11.81-2.82 18.36-1.32 2.16-2.72 4.01-4.22 5.55s-3.11 2.76-4.83 3.67c-1.73.91-3.6 1.53-5.62 1.85-1.58.23-3.16.23-4.72-.01-1.57-.24-3.13-.68-4.7-1.34s-3.25-1.54-5.05-2.64l-10.35-6.3c-1.44-.88-2.41-1.74-2.89-2.59-.49-.85-.62-1.7-.4-2.57.22-.86.69-1.88 1.4-3.04l16.09-26.42c.96-1.57 2.04-2.48 3.23-2.71 1.2-.23 2.66.17 4.37 1.22zm-.44 7.65-14.88 24.44 6.01 3.66c1.32.8 2.37 1.4 3.16 1.79s1.66.7 2.62.93 1.88.28 2.76.16c3.91-.45 7.4-3.19 10.47-8.23 2.16-3.55 3.2-6.57 3.11-9.05s-.84-4.48-2.26-6.01c-1.42-1.52-3.34-3.02-5.76-4.5z"/><path d="m755.05 99.13c3.67 3.04 6.25 6.33 7.75 9.87 1.5 3.55 1.88 7.14 1.15 10.78s-2.51 7.16-5.32 10.56c-2.08 2.51-4.34 4.49-6.78 5.93s-5.03 2.3-7.75 2.59c-2.73.28-5.5-.07-8.32-1.06s-5.62-2.63-8.4-4.94c-2.77-2.29-4.91-4.75-6.42-7.39-1.51-2.63-2.38-5.3-2.61-8-.23-2.71.15-5.42 1.14-8.13.99-2.72 2.49-5.3 4.51-7.74 2.07-2.5 4.35-4.46 6.86-5.9s5.1-2.28 7.8-2.51c2.69-.24 5.42.13 8.19 1.12 2.76.97 5.49 2.58 8.2 4.82zm-3.65 25.15c1.97-2.38 3.25-4.78 3.86-7.22s.5-4.74-.31-6.92-2.23-4.1-4.24-5.77c-1.43-1.19-2.96-2.03-4.59-2.55-1.62-.51-3.27-.66-4.93-.44s-3.35.85-5.07 1.9-3.34 2.49-4.86 4.32c-1.53 1.85-2.66 3.72-3.38 5.64-.73 1.91-1.03 3.74-.92 5.49s.57 3.36 1.36 4.84c.8 1.48 1.91 2.81 3.34 4 1.83 1.52 3.87 2.49 6.1 2.93 2.23.43 4.53.14 6.9-.86 2.37-1.01 4.61-2.79 6.74-5.36z"/><path d="m787.04 136.3-6.65 29.91 18.74-16.69c1.22-1.09 2.38-1.61 3.5-1.59 1.12.03 2.11.53 2.97 1.49.89 1 1.29 2.06 1.19 3.18-.09 1.12-.75 2.22-1.97 3.31l-24.76 22.06c-2.76 2.46-5.26 2.44-7.48-.05-.56-.62-.98-1.26-1.26-1.91s-.44-1.35-.47-2.1c-.03-.76.03-1.54.17-2.34.15-.8.3-1.61.47-2.44l6.73-29.39-18.45 16.44c-1.2 1.07-2.38 1.58-3.54 1.52s-2.16-.57-3.01-1.52c-.88-.98-1.27-2.05-1.17-3.2.09-1.15.74-2.25 1.92-3.31l24.29-21.64c1.03-.92 1.95-1.51 2.76-1.79.91-.28 1.87-.26 2.89.07 1.02.32 1.88.88 2.59 1.68.56.62.94 1.24 1.15 1.85s.31 1.22.29 1.84-.12 1.32-.31 2.12c-.18.81-.38 1.64-.59 2.5z"/><path d="m828.96 194.73-11.68-17.41-8.59 5.76 10.75 16.03c.79 1.18 1.14 2.22 1.04 3.13s-.54 1.63-1.34 2.16-1.64.68-2.53.45-1.73-.95-2.53-2.15l-10.75-16.03-9.96 6.68 12.08 18.01c.81 1.21 1.17 2.3 1.06 3.27-.11.96-.59 1.73-1.45 2.31-.83.55-1.71.7-2.64.43s-1.8-1.01-2.62-2.22l-14.09-21.01c-1.13-1.69-1.6-3.13-1.41-4.33s1.05-2.31 2.58-3.34l26.33-17.66c1.02-.68 1.96-1.08 2.83-1.18s1.68.1 2.45.61 1.52 1.31 2.25 2.4l13.69 20.41c.83 1.23 1.19 2.32 1.09 3.25-.1.94-.56 1.67-1.37 2.22-.83.56-1.69.7-2.6.44-.89-.25-1.76-1-2.59-2.23z"/><path d="m832.97 250.73c-2.27 1.16-4.64 1.56-7.1 1.2s-4.83-1.5-7.11-3.44-4.27-4.6-5.99-7.97c-2.06-4.05-3.06-7.74-3-11.08.06-2.38.64-4.57 1.73-6.59s2.43-3.43 4.02-4.24c.92-.47 1.89-.52 2.9-.16s1.79 1.08 2.34 2.17c.45.87.56 1.75.36 2.61-.21.87-.7 1.77-1.5 2.71-.93 1.13-1.65 2.2-2.14 3.22-.5 1.01-.73 2.21-.69 3.57.04 1.37.51 2.94 1.42 4.74 1.25 2.46 2.8 4.19 4.63 5.2 1.83 1 3.54 1.1 5.11.3 1.25-.64 2.05-1.57 2.41-2.79.36-1.23.41-2.6.15-4.13-.26-1.52-.72-3.5-1.37-5.94-.87-3.27-1.38-6.11-1.54-8.52s.19-4.58 1.06-6.48c.87-1.91 2.39-3.41 4.56-4.52 2.07-1.05 4.22-1.37 6.45-.96s4.37 1.57 6.42 3.46 3.87 4.41 5.48 7.56c1.28 2.52 2.1 4.84 2.46 6.96.36 2.13.38 4.04.04 5.73-.33 1.69-.88 3.09-1.63 4.18-.76 1.09-1.63 1.89-2.62 2.39-.91.46-1.9.53-2.98.2s-1.89-1.02-2.42-2.06c-.48-.95-.63-1.78-.44-2.5s.63-1.62 1.33-2.7c1.04-1.47 1.69-2.93 1.95-4.37.26-1.45-.2-3.33-1.37-5.64-1.09-2.15-2.4-3.66-3.94-4.53-1.53-.88-2.91-1-4.12-.39-.75.38-1.29.94-1.61 1.66-.32.73-.48 1.58-.47 2.56 0 .98.1 1.93.29 2.85.18.91.53 2.4 1.04 4.47.68 2.56 1.2 4.93 1.55 7.11s.44 4.14.25 5.89-.75 3.32-1.68 4.73c-.91 1.39-2.33 2.58-4.23 3.54z"/><path d="m828.7 262.51 30.55-13.09c1.59-.68 2.95-.8 4.08-.35s1.96 1.3 2.5 2.54c.55 1.29.61 2.5.16 3.63-.44 1.13-1.47 2.05-3.07 2.73l-30.55 13.09c-1.61.69-2.98.8-4.11.35-1.13-.46-1.98-1.33-2.53-2.62-.53-1.23-.56-2.42-.1-3.56.46-1.13 1.48-2.04 3.07-2.72z"/><path d="m847.42 308.01 4.1-4.01-6.96-17.34-5.84-.02c-2.28-.01-3.88-.16-4.79-.44-.91-.29-1.62-1.07-2.14-2.35-.44-1.09-.46-2.19-.06-3.32s1.06-1.88 1.98-2.25c.53-.21 1.12-.34 1.77-.37s1.57-.03 2.76.01l29.79.72c.85.02 1.88.04 3.08.07s2.23.15 3.11.37 1.68.65 2.42 1.29 1.35 1.55 1.82 2.73c.48 1.2.67 2.29.58 3.26-.1.97-.37 1.84-.83 2.6s-1 1.46-1.62 2.1-1.46 1.48-2.51 2.51l-20.78 21.27c-1.57 1.64-2.79 2.64-3.67 2.99-.91.36-1.9.28-2.99-.24s-1.86-1.36-2.33-2.53c-.27-.68-.39-1.31-.37-1.88.03-.57.17-1.1.42-1.59.25-.48.7-1.07 1.34-1.77.65-.69 1.22-1.3 1.72-1.81zm4-21.47 5.11 12.74 13.57-12.91z"/><path d="m888.8 322.69-16.47 25.8 23.3-9.27c1.51-.6 2.79-.7 3.83-.29s1.8 1.22 2.28 2.42c.49 1.24.51 2.38.04 3.4s-1.46 1.83-2.98 2.43l-30.81 12.26c-3.44 1.37-5.78.5-7.01-2.61-.31-.78-.49-1.52-.53-2.22s.05-1.42.28-2.14.55-1.43.96-2.14c.41-.7.84-1.41 1.28-2.13l16.38-25.29-22.96 9.14c-1.5.59-2.78.67-3.85.21-1.07-.45-1.84-1.27-2.31-2.46-.49-1.23-.49-2.36-.01-3.41s1.46-1.86 2.94-2.45l30.22-12.02c1.28-.51 2.35-.76 3.21-.73.95.05 1.85.4 2.69 1.05.85.65 1.47 1.48 1.86 2.47.31.78.46 1.49.45 2.14-.01.64-.13 1.25-.36 1.83-.23.57-.56 1.2-1.01 1.89-.45.68-.92 1.39-1.42 2.12z"/><path d="m64.44 550.66-3.49-10.04-33.9 11.78c-1.95.68-3.55.76-4.79.25s-2.09-1.44-2.55-2.78c-.47-1.36-.38-2.63.28-3.81.66-1.19 1.95-2.11 3.89-2.78l33.91-11.78-3.49-10.04c-.55-1.57-.6-2.86-.15-3.87s1.26-1.72 2.43-2.13c1.21-.42 2.31-.36 3.29.19s1.73 1.58 2.25 3.09l10.15 29.2c.55 1.59.6 2.9.15 3.92-.45 1.03-1.27 1.74-2.44 2.15s-2.25.34-3.23-.19c-1-.54-1.76-1.59-2.31-3.16z"/><path d="m87.35 579.96c2.16 4.49 3.08 8.79 2.76 12.91s-1.81 7.84-4.46 11.15c-2.65 3.32-6.31 6.1-10.97 8.34-3.44 1.66-6.79 2.71-10.04 3.17-3.25.45-6.34.27-9.28-.54s-5.59-2.28-7.95-4.39-4.37-4.87-6.01-8.27c-1.63-3.38-2.53-6.69-2.7-9.9-.17-3.22.34-6.21 1.52-8.99s2.99-5.31 5.42-7.62c2.43-2.3 5.32-4.26 8.66-5.87 3.42-1.65 6.79-2.69 10.1-3.11s6.41-.21 9.29.63 5.47 2.31 7.79 4.39c2.32 2.1 4.27 4.8 5.87 8.1zm-16.9 23.49c3.26-1.57 5.84-3.45 7.74-5.62s3-4.51 3.31-7-.13-4.96-1.31-7.42c-.84-1.75-1.96-3.21-3.36-4.36-1.4-1.16-3-1.96-4.81-2.41s-3.88-.5-6.19-.14c-2.31.35-4.73 1.13-7.24 2.34-2.53 1.22-4.67 2.63-6.42 4.24s-3.02 3.3-3.83 5.08c-.8 1.78-1.18 3.56-1.15 5.35.04 1.79.48 3.56 1.32 5.31 1.08 2.24 2.65 4.03 4.71 5.35s4.56 1.96 7.51 1.91c2.96-.05 6.2-.93 9.72-2.63z"/><path d="m78.73 628.02 19.89-12.99c1.69-1.11 3.2-1.56 4.53-1.38 1.33.19 2.39.88 3.18 2.09.82 1.26 1.06 2.54.69 3.83-.36 1.29-1.39 2.49-3.08 3.6l-20.34 13.29c-2.31 1.51-4.08 3.02-5.3 4.54s-1.84 3.2-1.86 5.04.73 3.92 2.24 6.22c2.08 3.19 4.42 4.87 7.03 5.05 2.6.18 5.67-.88 9.2-3.19l20.5-13.4c1.71-1.12 3.22-1.58 4.54-1.4 1.31.18 2.37.89 3.17 2.11s1.03 2.49.69 3.8-1.37 2.52-3.08 3.64l-19.88 12.99c-3.23 2.11-6.13 3.57-8.69 4.37s-5.22.88-7.96.25c-2.35-.55-4.48-1.59-6.39-3.11s-3.71-3.58-5.41-6.18c-2.02-3.09-3.42-5.98-4.19-8.66s-.9-5.2-.38-7.55 1.68-4.59 3.5-6.71c1.8-2.13 4.27-4.21 7.4-6.25z"/><path d="m120.73 685.54-2.23-2.58-12.01 10.39c-1.58 1.37-3.04 2.04-4.37 2.01s-2.47-.59-3.41-1.67c-1.01-1.17-1.41-2.41-1.18-3.73.22-1.32 1.09-2.63 2.6-3.94l28.73-24.86c1.63-1.41 3.12-2.08 4.46-2s2.7.91 4.07 2.5l10.35 11.96c1.43 1.65 2.58 3.12 3.45 4.42s1.49 2.61 1.86 3.93c.49 1.56.66 3.17.49 4.84-.16 1.66-.65 3.25-1.47 4.75s-1.91 2.84-3.27 4.01c-2.78 2.41-5.67 3.57-8.65 3.48-2.98-.08-6.16-1.38-9.54-3.87.41 1.92.44 4.08.07 6.47s-.93 4.73-1.7 7.02-1.56 4.24-2.37 5.86c-.82 1.61-1.46 2.63-1.94 3.04-.49.43-1.11.7-1.86.81s-1.49.03-2.23-.26-1.41-.77-2-1.47c-.71-.82-1.11-1.69-1.2-2.6s0-1.83.26-2.76.69-2.26 1.28-3.98l2.5-7.31c.94-2.66 1.53-4.83 1.78-6.5s.18-3.09-.21-4.26c-.37-1.15-1.13-2.39-2.26-3.7zm19.32-9.34-5.88-6.79-10.26 8.88 5.71 6.6c1.53 1.77 2.97 3.12 4.33 4.06 1.36.93 2.69 1.39 4 1.38 1.31-.02 2.62-.6 3.95-1.74 1.03-.9 1.73-1.94 2.07-3.14s.32-2.42-.07-3.66c-.39-1.2-1.67-3.06-3.85-5.59z"/><path d="m172.7 745.61c-1.97 2.24-4.31 3.76-7 4.56-2.7.8-5.57.75-8.63-.15s-6.07-2.65-9.05-5.27c-3.56-3.14-5.9-6.41-7-9.83-.76-2.43-.92-4.93-.48-7.49s1.35-4.63 2.73-6.19c.8-.91 1.79-1.42 2.98-1.53 1.18-.11 2.25.25 3.2 1.09.77.68 1.2 1.5 1.28 2.47.09.97-.12 2.12-.62 3.45-.58 1.59-.95 3.01-1.11 4.27s.01 2.58.53 3.95 1.56 2.75 3.14 4.13c2.17 1.91 4.39 2.94 6.66 3.09s4.08-.54 5.45-2.1c1.08-1.23 1.6-2.55 1.54-3.97-.06-1.41-.49-2.83-1.29-4.25s-1.97-3.22-3.51-5.38c-2.04-2.9-3.57-5.54-4.58-7.91s-1.39-4.73-1.15-7.07 1.31-4.59 3.19-6.73c1.8-2.04 3.93-3.38 6.41-4.02 2.48-.63 5.12-.48 7.92.48 2.8.95 5.59 2.65 8.36 5.09 2.22 1.95 3.88 3.92 5 5.9 1.12 1.99 1.8 3.92 2.04 5.79.24 1.88.16 3.54-.25 5.01-.41 1.46-1.05 2.68-1.91 3.66-.79.9-1.8 1.43-3.05 1.61s-2.33-.14-3.25-.95c-.84-.74-1.29-1.51-1.34-2.33-.06-.81.09-1.93.44-3.36.57-1.98.74-3.76.51-5.36-.23-1.59-1.37-3.29-3.4-5.08-1.89-1.66-3.79-2.58-5.7-2.74s-3.39.35-4.44 1.55c-.65.74-1.02 1.56-1.1 2.44-.08.89.05 1.83.4 2.82.35 1 .78 1.91 1.29 2.75s1.4 2.19 2.66 4.04c1.61 2.28 2.98 4.44 4.11 6.49 1.13 2.04 1.91 4 2.32 5.86.42 1.86.38 3.72-.1 5.59-.49 1.88-1.55 3.75-3.2 5.62z"/><path d="m223.25 751.44c1.02-1.83 2.41-3.23 4.17-4.22 1.76-.98 3.79-1.42 6.08-1.3s4.64.85 7.07 2.21c2.4 1.34 4.23 2.97 5.47 4.87s1.88 3.84 1.92 5.82-.39 3.77-1.29 5.38c-1.23 2.2-3 3.71-5.32 4.55s-5.33 1.34-9.02 1.49c.31 1.69.59 3.27.84 4.75s.51 2.87.78 4.18.55 2.45.83 3.43c.59-.39 1.61-1.17 3.05-2.35 1.44-1.17 2.61-1.95 3.51-2.32s1.82-.29 2.78.24c.9.5 1.5 1.27 1.82 2.31s.22 2.03-.31 2.97c-.48.86-1.46 1.92-2.93 3.17s-3.31 2.52-5.51 3.81c.36 1.02.94 2.6 1.77 4.73.82 2.13 1.28 3.53 1.38 4.18s-.07 1.37-.5 2.13c-.57 1.02-1.41 1.68-2.51 1.97-1.1.3-2.09.2-2.97-.29-.9-.5-1.6-1.28-2.11-2.34s-1.49-3.5-2.94-7.31c-1.91.5-3.74.77-5.49.79s-3.49-.2-5.22-.67-3.52-1.23-5.39-2.28c-2.39-1.33-4.33-2.88-5.83-4.66s-2.54-3.62-3.12-5.54-.76-3.79-.55-5.61c.22-1.82.75-3.5 1.6-5.03.82-1.47 1.8-2.69 2.94-3.66s2.4-1.72 3.79-2.25c1.38-.53 2.93-.9 4.64-1.12s3.6-.3 5.67-.25c-.4-2.64-.57-4.89-.5-6.74.08-1.82.54-3.51 1.4-5.04zm.23 18.61c-2.59.07-4.69.42-6.3 1.03-1.61.62-2.86 1.72-3.74 3.31-.5.9-.81 1.86-.92 2.88s-.02 2.07.27 3.16c.28 1.08.77 2.06 1.46 2.94.69.87 1.53 1.59 2.52 2.14.97.54 2.01.91 3.1 1.11s2.21.24 3.35.12 2.4-.37 3.75-.74c-.8-2.56-1.44-5-1.91-7.34-.48-2.33-1-5.2-1.58-8.61zm7.42-6.42c2.66-.19 4.66-.48 6.02-.86 1.36-.39 2.38-1.2 3.07-2.43.68-1.22.81-2.48.4-3.79s-1.27-2.33-2.59-3.07-2.66-.93-4.01-.58c-1.36.35-2.35 1.09-2.99 2.23-.33.59-.51 1.31-.56 2.18-.04.86 0 1.77.12 2.71.13.93.31 2.14.54 3.61z"/><path d="m321.18 791.32-10.11-3.23-10.93 34.2c-.63 1.97-1.52 3.29-2.68 3.98-1.16.68-2.41.8-3.77.37-1.38-.44-2.34-1.28-2.9-2.52s-.52-2.83.1-4.78l10.93-34.2-10.11-3.23c-1.58-.5-2.64-1.24-3.18-2.2s-.62-2.03-.25-3.21c.39-1.22 1.1-2.05 2.12-2.5 1.03-.45 2.3-.43 3.82.05l29.47 9.42c1.6.51 2.68 1.26 3.23 2.23.55.98.63 2.05.26 3.23-.38 1.18-1.07 2-2.09 2.46-1.03.45-2.33.43-3.91-.07z"/><path d="m345.7 817.52-3.34-.64-3 15.59c-.4 2.05-1.13 3.48-2.2 4.28s-2.32 1.06-3.74.79c-1.53-.29-2.62-1.03-3.26-2.21-.65-1.18-.78-2.75-.4-4.71l7.18-37.32c.41-2.12 1.16-3.56 2.27-4.33s2.69-.96 4.75-.56l15.55 2.99c2.15.41 3.96.86 5.45 1.34s2.79 1.12 3.9 1.93c1.36.92 2.5 2.09 3.41 3.5s1.51 2.96 1.8 4.65.26 3.42-.08 5.18c-.7 3.62-2.25 6.31-4.65 8.09-2.41 1.78-5.72 2.73-9.94 2.85 1.52 1.25 2.88 2.94 4.08 5.04 1.2 2.11 2.21 4.3 3.04 6.58.82 2.28 1.42 4.3 1.78 6.08.36 1.77.48 2.97.36 3.59-.12.64-.44 1.24-.96 1.79s-1.16.94-1.92 1.18c-.76.23-1.59.26-2.49.09-1.07-.21-1.93-.64-2.56-1.3s-1.13-1.44-1.51-2.33c-.37-.9-.86-2.21-1.47-3.92l-2.58-7.29c-.91-2.67-1.78-4.74-2.62-6.2-.84-1.47-1.77-2.54-2.79-3.22-1.01-.69-2.37-1.19-4.06-1.51zm9.39-19.35-8.8-1.69-2.57 13.37 8.54 1.64c2.29.44 4.26.61 5.9.5s2.97-.58 3.98-1.4c1.01-.83 1.69-2.1 2.02-3.83.26-1.35.16-2.6-.31-3.76s-1.24-2.1-2.32-2.84c-1.02-.69-3.17-1.36-6.44-1.99z"/><path d="m417.5 842.46-1.8-6.35-19.48-1.53-2.79 6.13c-1.09 2.39-1.98 3.99-2.68 4.8s-1.77 1.16-3.21 1.05c-1.22-.1-2.26-.64-3.13-1.63-.86-.99-1.25-2.07-1.16-3.23.05-.67.22-1.36.49-2.06s.71-1.67 1.31-2.9l14.77-31c.42-.89.93-1.96 1.52-3.21s1.2-2.28 1.82-3.08c.62-.81 1.41-1.44 2.35-1.89.95-.46 2.08-.63 3.41-.53 1.35.11 2.46.46 3.32 1.06s1.54 1.33 2.03 2.2.89 1.8 1.2 2.78.69 2.29 1.15 3.92l10.02 32.75c.79 2.49 1.14 4.29 1.06 5.39-.09 1.14-.64 2.15-1.64 3.03s-2.16 1.26-3.46 1.16c-.76-.06-1.41-.25-1.93-.57s-.95-.74-1.28-1.25-.67-1.28-1.02-2.31c-.33-1.04-.62-1.95-.87-2.73zm-18.14-15.14 14.32 1.13-5.62-20.92z"/><path d="m447.84 805.33 11.23 33 10.54-33.47c.55-1.76.96-2.98 1.24-3.67s.74-1.31 1.39-1.87 1.54-.84 2.67-.85c.83-.01 1.6.2 2.32.61.71.42 1.28.98 1.69 1.68s.62 1.41.63 2.13c0 .49-.05 1.03-.18 1.6-.12.57-.28 1.14-.47 1.69s-.38 1.12-.57 1.71l-11.27 32.39c-.4 1.24-.8 2.42-1.21 3.53-.4 1.12-.87 2.1-1.41 2.95s-1.25 1.55-2.15 2.09c-.9.55-2 .83-3.31.84s-2.42-.24-3.33-.75-1.65-1.21-2.22-2.06c-.57-.86-1.06-1.83-1.49-2.93-.43-1.09-.85-2.26-1.28-3.49l-11.77-31.87c-.2-.58-.41-1.15-.62-1.71s-.39-1.16-.54-1.81-.23-1.2-.23-1.65c-.01-1.14.42-2.19 1.31-3.15.88-.95 2-1.44 3.36-1.45 1.66-.02 2.84.49 3.54 1.53s1.39 2.69 2.13 4.98z"/><path d="m524.94 803.03-21.83 2.12 1.18 12.1 20.1-1.95c1.48-.14 2.62.09 3.41.7s1.25 1.47 1.35 2.58-.16 2.06-.81 2.83-1.72 1.23-3.23 1.38l-20.1 1.95 1.36 13.98 22.58-2.19c1.52-.15 2.7.1 3.55.76.84.65 1.32 1.58 1.44 2.79.11 1.16-.18 2.15-.88 2.95s-1.81 1.28-3.34 1.43l-26.32 2.54c-2.11.21-3.67-.13-4.68-1-1.02-.87-1.63-2.38-1.84-4.53l-3.59-36.96c-.14-1.43-.05-2.62.28-3.56.32-.95.91-1.67 1.75-2.17s1.94-.82 3.31-.95l25.57-2.48c1.54-.15 2.72.09 3.54.72s1.28 1.52 1.39 2.66c.11 1.16-.17 2.13-.85 2.91s-1.79 1.24-3.34 1.39z"/><path d="m552.97 796.13 6.78 35.33 19.39-3.72c1.54-.3 2.8-.14 3.78.47.97.61 1.57 1.5 1.8 2.66.23 1.18 0 2.22-.67 3.12-.67.89-1.8 1.49-3.36 1.79l-23.1 4.43c-2.09.4-3.68.21-4.78-.56s-1.85-2.22-2.25-4.33l-7.17-37.35c-.38-1.98-.23-3.56.45-4.72s1.73-1.88 3.15-2.15c1.44-.28 2.71-.01 3.79.8 1.07.81 1.81 2.22 2.19 4.23z"/><path d="m654.12 807.34-4.32-5.01-18.3 6.83.07 6.74c.03 2.63-.11 4.46-.4 5.5s-1.11 1.8-2.46 2.3c-1.15.43-2.32.37-3.52-.16-1.2-.54-2.01-1.35-2.42-2.45-.24-.63-.38-1.32-.42-2.07-.05-.75-.06-1.81-.04-3.19l.29-34.38c0-.99.01-2.17.02-3.55s.12-2.57.35-3.57c.22-1 .67-1.9 1.33-2.71s1.62-1.45 2.87-1.92c1.27-.47 2.42-.62 3.46-.44 1.03.18 1.96.56 2.77 1.14.81.59 1.56 1.26 2.26 2.02.69.76 1.59 1.79 2.7 3.08l22.91 25.5c1.77 1.93 2.85 3.41 3.23 4.45.4 1.07.33 2.22-.2 3.44-.54 1.22-1.42 2.06-2.65 2.52-.72.27-1.38.36-1.99.29s-1.17-.27-1.69-.59-1.15-.88-1.9-1.67c-.74-.79-1.39-1.49-1.95-2.1zm-22.84-6.09 13.45-5.02-13.92-16.58z"/><path d="m709.11 763.98 4.49 8.32c.6 1.11.97 2.05 1.11 2.82.15.78.08 1.58-.2 2.42s-.73 1.75-1.35 2.72c-1.79 2.81-3.69 5.17-5.7 7.1s-4.41 3.65-7.2 5.15c-3.25 1.75-6.49 2.84-9.72 3.25-3.23.42-6.31.15-9.25-.79s-5.67-2.53-8.18-4.77-4.7-5.09-6.56-8.53c-1.82-3.38-3-6.74-3.54-10.08-.53-3.34-.38-6.5.47-9.48.85-2.99 2.36-5.73 4.53-8.25 2.17-2.51 4.99-4.7 8.45-6.57 2.84-1.54 5.58-2.5 8.19-2.91 2.61-.4 4.92-.38 6.93.07s3.71 1.15 5.12 2.1 2.39 1.94 2.95 2.97c.6 1.11.71 2.27.33 3.48s-1.12 2.12-2.24 2.72c-.62.33-1.29.5-2.02.51s-1.43-.16-2.11-.49c-1.98-1.13-3.57-1.94-4.77-2.42s-2.58-.68-4.14-.61-3.3.63-5.22 1.67c-1.98 1.07-3.56 2.37-4.74 3.92-1.18 1.54-1.96 3.28-2.34 5.21s-.35 4.02.11 6.28c.46 2.25 1.33 4.56 2.6 6.91 2.75 5.1 6.01 8.41 9.77 9.93s7.68 1.18 11.75-1.02c1.98-1.07 3.7-2.34 5.15-3.81s2.81-3.18 4.06-5.13l-3.8-7.04-6.63 3.58c-1.6.86-2.94 1.27-4.02 1.21-1.08-.05-1.95-.67-2.59-1.86-.52-.97-.61-1.95-.27-2.96.34-1 1.1-1.82 2.27-2.45l9.72-5.25c1.19-.64 2.26-1.08 3.21-1.31s1.88-.1 2.79.37c.91.53 1.78 1.52 2.59 3.02z"/><path d="m735.29 718.54-17.59 13.11 7.26 9.73 16.19-12.07c1.19-.89 2.28-1.28 3.28-1.17s1.83.62 2.5 1.51c.67.9.93 1.85.77 2.84-.16 1-.84 1.95-2.05 2.85l-16.19 12.07 8.4 11.27 18.19-13.56c1.23-.91 2.37-1.31 3.43-1.19s1.95.67 2.68 1.64c.7.94.95 1.93.77 2.98-.19 1.05-.89 2.03-2.12 2.95l-21.22 15.82c-1.7 1.27-3.22 1.8-4.54 1.58s-2.63-1.19-3.92-2.92l-22.19-29.77c-.86-1.15-1.39-2.22-1.6-3.2s-.08-1.9.38-2.76 1.25-1.71 2.35-2.53l20.61-15.37c1.24-.93 2.38-1.33 3.41-1.22 1.03.12 1.88.63 2.57 1.55.7.94.96 1.92.78 2.93-.19 1.03-.91 2-2.15 2.93z"/><path d="m755.78 696.78 33.8 7.39-20.74-20.8c-1.35-1.35-2.08-2.65-2.18-3.89-.11-1.24.32-2.34 1.28-3.29.99-.99 2.11-1.43 3.36-1.33s2.54.83 3.89 2.18l27.42 27.5c3.06 3.07 3.35 5.84.87 8.31-.62.62-1.27 1.08-1.95 1.39s-1.43.48-2.26.52c-.83.03-1.7-.03-2.6-.19s-1.82-.34-2.74-.52l-33.24-7.48 20.43 20.49c1.33 1.34 2.04 2.65 2.11 3.93.08 1.29-.36 2.4-1.3 3.34-.98.97-2.11 1.41-3.38 1.3-1.28-.1-2.58-.82-3.89-2.13l-26.9-26.98c-1.14-1.14-1.91-2.17-2.32-3.07-.42-1.01-.51-2.08-.28-3.21s.74-2.09 1.53-2.88c.62-.62 1.25-1.04 1.9-1.28.65-.23 1.31-.34 1.99-.33.68.02 1.47.13 2.38.34.9.24 1.84.46 2.82.69z"/><path d="m832.32 650.74c1.26.94 2.39 2.27 3.4 3.97s1.73 3.73 2.17 6.08.34 4.86-.29 7.53-1.95 5.34-3.96 8.01c-1.52 2.03-3.11 3.72-4.75 5.08s-3.39 2.41-5.24 3.14-3.89 1.15-6.1 1.26c-2 .09-4.04-.09-6.11-.53s-4.12-1.13-6.13-2.08-3.99-2.16-5.95-3.63c-3.18-2.39-5.68-4.98-7.52-7.77s-3.02-5.7-3.54-8.72-.4-6.01.36-8.97 2.1-5.71 4.02-8.26c2.34-3.11 5.06-5.4 8.16-6.87s6.07-2.15 8.92-2.03 5.11.8 6.77 2.06c.91.69 1.49 1.61 1.71 2.76.23 1.16 0 2.18-.67 3.07-.75 1-1.55 1.56-2.41 1.69s-2.11.06-3.76-.22c-2.72-.46-5.08-.37-7.08.28-2 .64-3.76 1.97-5.27 3.98-2.4 3.2-3.07 6.68-2 10.45s3.9 7.38 8.5 10.84c3.07 2.31 5.94 3.81 8.61 4.5s5.08.65 7.25-.13c2.16-.78 4.01-2.2 5.57-4.26 1.68-2.24 2.53-4.55 2.55-6.96.02-2.4-.78-4.83-2.39-7.28-.79-1.11-1.33-2.16-1.62-3.14s-.02-2.01.79-3.1c.7-.92 1.62-1.47 2.79-1.63 1.16-.15 2.23.14 3.22.88z"/><path d="m850.36 641.03-33.27-20.21c-1.73-1.05-2.79-2.22-3.19-3.51s-.23-2.54.51-3.76c.76-1.25 1.8-2 3.13-2.26s2.86.15 4.61 1.21l33.27 20.21c1.75 1.06 2.82 2.24 3.21 3.54s.21 2.58-.55 3.83c-.73 1.2-1.76 1.92-3.11 2.16s-2.88-.16-4.61-1.21z"/><path d="m847.15 570.44-9.73 19.64 10.86 5.38 8.96-18.09c.66-1.33 1.46-2.17 2.4-2.52s1.91-.28 2.92.22 1.67 1.23 1.98 2.19.13 2.12-.53 3.47l-8.96 18.09 12.63 6.26 10.07-20.32c.68-1.37 1.52-2.24 2.51-2.61 1-.37 2.04-.29 3.12.25 1.04.52 1.72 1.28 2.03 2.3s.12 2.21-.56 3.58l-11.74 23.69c-.94 1.9-2.05 3.05-3.33 3.45s-2.88.12-4.81-.83l-33.27-16.48c-1.29-.64-2.25-1.35-2.88-2.12-.63-.78-.94-1.65-.92-2.63s.34-2.08.95-3.31l11.41-23.02c.69-1.39 1.52-2.26 2.49-2.63.97-.36 1.97-.29 2.99.22 1.05.52 1.72 1.27 2.02 2.26.28.98.08 2.17-.61 3.56z"/><path d="m892.93 528.29c2.79 1.06 5.04 2.71 6.74 4.95s2.66 4.95 2.9 8.13-.34 6.62-1.74 10.32c-1.68 4.44-3.93 7.77-6.74 10-2.01 1.56-4.29 2.59-6.84 3.08s-4.8.36-6.76-.38c-1.13-.43-1.96-1.18-2.48-2.25s-.56-2.19-.11-3.37c.36-.96.98-1.64 1.86-2.07.88-.42 2.03-.63 3.45-.63 1.69-.02 3.15-.17 4.39-.46s2.41-.92 3.51-1.89 2.02-2.44 2.77-4.4c1.02-2.71 1.21-5.15.56-7.33s-1.94-3.64-3.88-4.37c-1.53-.58-2.95-.6-4.25-.04-1.3.55-2.48 1.45-3.53 2.71s-2.32 2.99-3.8 5.19c-2 2.93-3.93 5.28-5.79 7.06s-3.94 2.96-6.22 3.56c-2.28.59-4.76.39-7.43-.62-2.54-.96-4.55-2.49-6.02-4.59s-2.25-4.62-2.34-7.58c-.1-2.96.51-6.16 1.82-9.61 1.04-2.76 2.3-5.01 3.77-6.75 1.47-1.75 3.04-3.06 4.71-3.95 1.67-.88 3.27-1.39 4.78-1.52 1.52-.13 2.89.04 4.11.5 1.12.42 1.98 1.18 2.58 2.29.61 1.1.69 2.22.26 3.37-.39 1.04-.96 1.73-1.72 2.06-.75.33-1.87.58-3.35.74-2.03.17-3.75.64-5.15 1.43-1.4.78-2.58 2.45-3.54 4.99-.89 2.36-1.08 4.46-.57 6.31s1.52 3.05 3.01 3.62c.93.35 1.82.41 2.67.17.86-.24 1.69-.7 2.5-1.37.81-.68 1.52-1.41 2.12-2.19.61-.78 1.56-2.09 2.85-3.92 1.57-2.3 3.11-4.34 4.62-6.12 1.51-1.77 3.07-3.18 4.66-4.22 1.6-1.04 3.35-1.66 5.26-1.86 1.91-.21 4.03.13 6.36 1.01z"/></g><path clip-rule="evenodd" d="m663.8 302.32h57.85l64.98 192h-70.85l-9.22-29.34h-29.77l-9.64 28.5h-67.49z" fill="#fff" fill-rule="evenodd" stroke="#7f8081" stroke-width="4"/><path clip-rule="evenodd" d="m622.29 370.27v-68.79h-187.39v192h64.14v-123.66h26.41v124.08h65.4v-123.67z" fill="#fff" fill-rule="evenodd" stroke="#7f8081" stroke-width="4"/><path clip-rule="evenodd" d="m405.56 374.85 26.41-54.08s-83.43-56.17-118.22 13c0 0-23.06 43.18 8.38 77.97l-19.28 39.41-51.56-148.82h-58.69l-63.72 191.57h68.75l9.64-28.09h29.35l9.64 27.67h70.01l-6.71-15.51s35.21 31.86 83.84 13.42 36.89-72.53 36.89-72.53-2.1-36.34-24.98-43.26z" fill="#fff" fill-rule="evenodd" stroke="#7f8081" stroke-width="4"/><path clip-rule="evenodd" d="m243.32 320.49-.28-.98h-39.69l-53.8 157.49h38.99l8.11-27.53h51.28l8.52 27.81h38.85zm-36.61 97.81 15.93-49.75 15.79 49.75z" fill="#3a53a4" fill-rule="evenodd"/><path clip-rule="evenodd" d="m712.84 320.49-.28-.98h-39.69l-53.8 157.49h38.99l8.11-27.53h51.28l8.53 27.81h38.85zm-36.61 97.81 15.93-49.75 15.79 49.75z" fill="#3a53a4" fill-rule="evenodd"/><path clip-rule="evenodd" d="m396.9 360.17 14.95-32s-59.11-36.05-86.64 14.25c0 0-20.54 49.75 19.56 66.38 0 0 31.3 10.48 30.18 12.86 0 0 12.3 11.04-2.24 22.5 0 0-12.16 9.36-33.26-5.59l-9.22-8.38-15.79 32.84s31.72 29.2 71.83 13.97 30.18-62.18 30.18-62.18-1.96-24.88-38.99-35.36-13-31.58-4.19-29.76c0 0 16.71 1.83 22.08 9.74l1.06 1.14.38-.42" fill="#3a53a4" fill-rule="evenodd"/><path clip-rule="evenodd" d="m449.58 319.4h36.36v158.05h-36.57z" fill="#3a53a4" fill-rule="evenodd"/><path clip-rule="evenodd" d="m511.51 319.4v34.59h29.24v123.67h36.9v-124.09h29.66v-34.17z" fill="#3a53a4" fill-rule="evenodd"/></svg>