<svg enable-background="new 0 0 175.75 113.22" viewBox="0 0 175.75 113.22" xmlns="http://www.w3.org/2000/svg"><path clip-rule="evenodd" d="m24.98 113.22 7.14-35.98h11.71l-7.14 35.98zm35.27-11.71h7.42l-2-13.28zm-16.42 11.71 17.7-35.98h11.57l7.14 35.98h-10.71l-.71-4.28h-11.43l-1.86 4.28zm47.11 0 4.14-26.98h-10.28l1.71-9.14h31.41l-1.71 9.14h-9.71l-4 26.98zm39.26-11.71h7.42l-1.86-13.28zm-16.27 11.71 17.56-35.98h11.56l7.28 35.98h-10.99l-.43-4.28h-11.56l-1.86 4.28zm61.82-76.67h-54.82c-2 10.14-8.99 18.56-22.99 24.41 1.57 4.85 7 9.28 12.56 9.28h29.84c4.57 0 8.14-3.85 9.57-7h-30.27c-1.86-.29-1.86-1.71-.14-2h29.84c3.85 0 7.28-3.28 9.28-6.85h-34.55c-1.86-.29-1.86-1.71 0-2h34.84c3.57 0 6.71-4.14 7.99-6.85h-38.26c-1.86-.29-1.86-2 0-2.14h38.98c3.13 0 5.99-3.28 8.13-6.85zm-175.75 0h54.82c2 10.14 8.99 18.56 22.99 24.41-1.57 4.85-7 9.28-12.56 9.28h-29.84c-4.57 0-8.14-3.85-9.57-7h30.27c1.86-.29 1.86-1.71.14-2h-29.84c-3.85 0-7.28-3.28-9.28-6.85h34.55c1.86-.29 1.86-1.71 0-2h-34.83c-3.57 0-6.71-4.14-7.99-6.85h38.26c1.86-.29 1.86-2 0-2.14h-38.98c-3.14 0-6-3.28-8.14-6.85zm70.1-30.27c2 1.71 4.28 3.28 6.71 4.28 2-4.14 5-7.57 8.28-10.57-5.57.58-10.71 2.72-14.99 6.29zm-9.71 20.13h12.28c.14-5.14 1.28-9.57 3.28-14.13-2.71-1.14-5.14-2.71-7.42-4.57-5 5-7.85 11.56-8.14 18.7zm26.56-11.56v11.56h-12.28c.14-4.57 1.14-9.14 3.14-13.42 2.85 1.14 6 1.72 9.14 1.86zm18.7-8.57c-2 1.71-4.28 3.28-6.71 4.28-2.14-4.14-4.86-7.42-8.28-10.56 5.57.57 10.71 2.71 14.99 6.28zm9.71 20.13h-12.28c-.14-5-1.28-9.57-3.14-14.13 2.57-1.14 5-2.71 7.28-4.57 5.14 5.28 7.85 11.71 8.14 18.7zm-26.42-11.56v11.56h12.14c0-4.71-1.14-9.14-3.14-13.42-2.86 1.14-6 1.72-9 1.86zm-18.84 33.55c2-1.57 4.28-3.28 6.71-4.14 2.14 4.14 4.85 7.57 8.28 10.57-5.57-.72-10.71-2.72-14.99-6.43zm-9.71-19.99h12.28c.14 5 1.28 9.42 3.28 14.13-2.71 1.14-5.14 2.71-7.42 4.57-4.86-4.99-7.85-11.56-8.14-18.7zm26.56 11.57v-11.57h-12.28c.14 4.57 1.14 9.28 3.14 13.28 2.85-1 6-1.71 9.14-1.71zm18.7 8.42c-1.86-1.57-4.28-3.14-6.71-4.14-2.14 4.14-4.85 7.57-8.28 10.57 5.57-.72 10.71-2.72 14.99-6.43zm9.71-19.99h-12.28c-.14 5-1.14 9.57-3.14 14.13 2.57 1.14 5 2.71 7.28 4.57 4.85-4.99 7.85-11.7 8.14-18.7zm-26.42 11.57v-11.57h12.14c0 4.57-1.14 9.14-3.14 13.28-2.71-1-6-1.71-9-1.71zm-1.99-38.84c-3.28 2.57-6.28 6.28-8.28 10.14 2.71.86 5.43 1.57 8.28 1.57zm1.99 0c3.14 2.57 6.14 6.28 8.14 10.14-2.71 1-5.43 1.57-8.14 1.57zm-1.99 52.54c-3.28-2.57-6.28-6.28-8.28-10.14 2.71-1 5.43-1.57 8.28-1.57zm1.99.14c3.14-2.71 6.14-6.42 8.14-10.28-2.71-.86-5.43-1.57-8.14-1.57z" fill="#006991" fill-rule="evenodd"/></svg>