<svg xmlns="http://www.w3.org/2000/svg" id="Layer_1" data-name="Layer 1" viewBox="0 0 230.73 54.83"><defs><linearGradient id="linear-gradient" x1="193.97" x2="197.12" y1="-563.18" y2="-587.16" gradientTransform="matrix(1 0 0 -1 0 -525.06)" gradientUnits="userSpaceOnUse"><stop offset="0" stop-color="#00a6d3"/><stop offset="1" stop-color="#17efff"/></linearGradient><linearGradient id="linear-gradient-2" x1="193.66" x2="193.73" y1="-579.58" y2="-571.85" gradientTransform="matrix(1 0 0 -1 0 -525.06)" gradientUnits="userSpaceOnUse"><stop offset="0" stop-color="#166cfe"/><stop offset="1" stop-color="#17efff"/></linearGradient><linearGradient id="linear-gradient-3" x1="198.66" x2="194.95" y1="-564.23" y2="-592.37" gradientTransform="matrix(1 0 0 -1 0 -525.06)" gradientUnits="userSpaceOnUse"><stop offset="0" stop-color="#0c66ee"/><stop offset="1" stop-color="#0fd8ff"/></linearGradient><style>.cls-1{fill:#0a73b7}.cls-2{fill:#fff}.cls-3{fill:#f37721}.cls-4{fill:#405374}.cls-8{fill:#001a46}</style></defs><path d="M1 33.33C2.86 31.82 2.77 31.2 8 31s14.87 3.3 16 3.8c.5-.93 11.64-7 14-8.41s6.59-5.33 7.25-8.62l.11-.15A23.85 23.85 0 0 0 .75 33.85Z" class="cls-1"/><path d="M.93 33.43s.21-6.11 7.32-7 6-.36 6-.36 2.59-4.67 6.83-4.88 4.88-.07 5.3-.44a.77.77 0 0 0 0-1.29 1.32 1.32 0 0 1 1.8 1.37c1.23-.15 4.24-.86 4.24-2.37s-.57-1.08-.57-1.08 2.37.57 2.37 1.87-1.65 1.94-1.65 1.94a29.05 29.05 0 0 0 5.53.36c1.87-.22 7-2.49 7.26-4.22C45 20.65 40.37 25 38 26.4s-13.5 7.47-14 8.41c-1.08-.51-10.56-4-16-3.82s-5.17.86-7.11 2.45ZM20.83 23a3.17 3.17 0 0 0-2.93 2 3.18 3.18 0 0 0-.18 1.83 3.2 3.2 0 0 0 2.48 2.48 3.17 3.17 0 0 0 1.8-.22 3.07 3.07 0 0 0 1.42-1.17 3.14 3.14 0 0 0 .58-1.75A3.16 3.16 0 0 0 20.83 23Z" class="cls-2"/><path d="M20.9 25.31a1.36 1.36 0 0 1-.23.76 1.38 1.38 0 0 1-.61.51 1.42 1.42 0 0 1-.79.08 1.46 1.46 0 0 1-.7-.38 1.4 1.4 0 0 1-.3-1.49 1.38 1.38 0 0 1 .51-.61 1.36 1.36 0 0 1 2.12 1.13ZM30.38 51c-.18-1.85-.2-8.85 8.53-16.19 6.17-5.19 7.84-9.57 8.21-12.22-.1-.42-.2-.84-.33-1.25a18.68 18.68 0 0 1-3.3 6.58c-2.19 2.88-9.8 8.52-13.35 13.46-2.62 3.68-3.76 9-4 10.41a23 23 0 0 0 4.24-.79Z" class="cls-2"/><path d="M45.9 32a14.18 14.18 0 0 0 1.84-4.79c0-.82-.1-1.65-.21-2.47-1 5-5.34 9.39-8.34 13.81a27 27 0 0 0-4.06 10.49A24.89 24.89 0 0 0 38.35 47c.2-5.08 4.53-10 7.55-15ZM46.17 19.49c-.07-.16-.12-.31-.19-.47-2.32 8-14.34 13.7-21 18.68a23.81 23.81 0 0 0-8.42 13 23.65 23.65 0 0 0 4.85 1c1.29-8 4.91-12.26 15.17-19.71 7.51-5.45 9.22-10.26 9.6-12.53Z" class="cls-2"/><path d="M25 37.7C31.64 32.72 43.65 27 46 19c-.19-.48-.4-1-.61-1.41l-.11.15c-.65 3.28-5 7.32-7.25 8.62s-13.5 7.47-14 8.4c-1.09-.5-10.56-4-16-3.8s-5.18.83-7 2.34c-.11.17-.21.35-.3.52a23.94 23.94 0 0 0 15.8 16.86A23.75 23.75 0 0 1 25 37.7ZM39.19 38.58c3-4.42 7.39-8.78 8.34-13.81-.11-.74-.23-1.48-.41-2.21-.37 2.66-2 7-8.23 12.22-8.73 7.35-8.71 14.35-8.51 16.22a24.44 24.44 0 0 0 4.75-1.91 26.73 26.73 0 0 1 4.06-10.49ZM45.9 32c-3 5-7.35 9.89-7.55 15a23.84 23.84 0 0 0 9.41-19v-.76A14.08 14.08 0 0 1 45.9 32Z" class="cls-3"/><path d="M30.15 41.35c3.54-4.94 11.16-10.58 13.34-13.46a18.6 18.6 0 0 0 3.3-6.58c-.18-.61-.39-1.23-.62-1.82-.38 2.28-2.1 7.09-9.6 12.54-10.27 7.44-13.88 11.7-15.17 19.71a23.09 23.09 0 0 0 2.49.14c.77 0 1.54 0 2.3-.11.2-1.41 1.34-6.77 3.96-10.42Z" class="cls-3"/><path d="M60.37 48.07v4.77h-.63v-3.56l-1.58 3.56h-.45l-1.59-3.56v3.56h-.63v-4.77h.68L57.93 52l1.77-3.94ZM64.88 50.81v.38h-3a1.18 1.18 0 0 0 1.23 1.18 1.17 1.17 0 0 0 .67-.18 1 1 0 0 0 .39-.51h.68a1.73 1.73 0 0 1-.61.89 1.89 1.89 0 0 1-1.13.33 2 2 0 0 1-1-.24 1.73 1.73 0 0 1-.66-.68 2.16 2.16 0 0 1-.24-1 2.19 2.19 0 0 1 .23-1 1.66 1.66 0 0 1 .66-.68 2.1 2.1 0 0 1 1.93 0 1.64 1.64 0 0 1 .63.65 1.78 1.78 0 0 1 .22.86Zm-.65-.13a1.12 1.12 0 0 0-.16-.62 1 1 0 0 0-.43-.39 1.33 1.33 0 0 0-.6-.14 1.16 1.16 0 0 0-.81.3 1.27 1.27 0 0 0-.38.85ZM70.25 49a1.57 1.57 0 0 1 .79.19 1.28 1.28 0 0 1 .54.54 1.77 1.77 0 0 1 .2.89v2.23h-.62V50.7a1.2 1.2 0 0 0-.28-.86 1 1 0 0 0-.75-.3 1 1 0 0 0-.78.31 1.31 1.31 0 0 0-.29.91v2.08h-.62V50.7a1.2 1.2 0 0 0-.28-.86 1.11 1.11 0 0 0-1.53 0 1.26 1.26 0 0 0-.29.91v2.08h-.63v-3.77h.63v.55a1.27 1.27 0 0 1 .49-.46 1.63 1.63 0 0 1 .7-.16 1.55 1.55 0 0 1 .84.22 1.33 1.33 0 0 1 .55.62 1.26 1.26 0 0 1 .52-.62 1.61 1.61 0 0 1 .81-.21ZM73.44 49.77a1.53 1.53 0 0 1 .57-.56 1.7 1.7 0 0 1 .85-.21 1.74 1.74 0 0 1 .91.24 1.68 1.68 0 0 1 .64.68 2.08 2.08 0 0 1 .24 1 2.13 2.13 0 0 1-.24 1 1.65 1.65 0 0 1-.64.69 1.71 1.71 0 0 1-.91.25 1.75 1.75 0 0 1-.87-.21 1.45 1.45 0 0 1-.55-.55v.7h-.63v-5.1h.63ZM76 50.94a1.49 1.49 0 0 0-.18-.75 1.18 1.18 0 0 0-.46-.48 1.31 1.31 0 0 0-.65-.17 1.21 1.21 0 0 0-.64.18 1.24 1.24 0 0 0-.47.49 1.54 1.54 0 0 0-.17.73 1.67 1.67 0 0 0 .17.76 1.38 1.38 0 0 0 .47.49 1.38 1.38 0 0 0 1.29 0 1.28 1.28 0 0 0 .46-.49 1.55 1.55 0 0 0 .18-.76ZM80.92 50.81a2.55 2.55 0 0 1 0 .38h-3a1.22 1.22 0 0 0 .38.87 1.24 1.24 0 0 0 .85.31 1.15 1.15 0 0 0 .67-.18 1 1 0 0 0 .39-.51h.68a1.67 1.67 0 0 1-.61.89 1.87 1.87 0 0 1-1.13.33 2 2 0 0 1-1-.24 1.73 1.73 0 0 1-.66-.68 2.16 2.16 0 0 1-.24-1 2.19 2.19 0 0 1 .23-1 1.66 1.66 0 0 1 .66-.68 2.1 2.1 0 0 1 1.93 0 1.58 1.58 0 0 1 .63.65 1.78 1.78 0 0 1 .22.86Zm-.65-.13a1.21 1.21 0 0 0-.15-.62 1 1 0 0 0-.44-.39 1.33 1.33 0 0 0-.6-.14 1.16 1.16 0 0 0-.81.3 1.27 1.27 0 0 0-.38.85ZM82.38 49.68a1.16 1.16 0 0 1 .47-.51 1.44 1.44 0 0 1 .75-.17v.65h-.17c-.7 0-1.05.38-1.05 1.15v2.05h-.63v-3.79h.63ZM87.81 52.9a2 2 0 0 1-1-.24 1.75 1.75 0 0 1-.67-.68 2.16 2.16 0 0 1-.24-1 2 2 0 0 1 .25-1 1.74 1.74 0 0 1 .69-.68 1.94 1.94 0 0 1 1-.24 2 2 0 0 1 1 .24 1.65 1.65 0 0 1 .68.68 2 2 0 0 1 .26 1 2.06 2.06 0 0 1-.26 1 1.83 1.83 0 0 1-.7.68 2 2 0 0 1-1.01.24Zm0-.55a1.23 1.23 0 0 0 .63-.16 1.14 1.14 0 0 0 .48-.47 1.72 1.72 0 0 0 0-1.55 1.18 1.18 0 0 0-.47-.47 1.32 1.32 0 0 0-1.26 0 1.16 1.16 0 0 0-.46.47 1.9 1.9 0 0 0 0 1.55 1.19 1.19 0 0 0 .46.48 1.29 1.29 0 0 0 .62.15ZM92.11 49.58h-.79v3.26h-.63v-3.26h-.49v-.52h.49v-.27a1.19 1.19 0 0 1 .32-.92 1.56 1.56 0 0 1 1.06-.3v.53a.85.85 0 0 0-.59.16.72.72 0 0 0-.16.53v.27h.79ZM95.45 49.58v2.23a.59.59 0 0 0 .11.39.63.63 0 0 0 .41.11h.46v.53h-.56a1.15 1.15 0 0 1-.79-.24 1.06 1.06 0 0 1-.26-.79v-2.23h-.49v-.52h.49v-1h.63v1h1v.52ZM99.07 49a1.54 1.54 0 0 1 .77.19 1.28 1.28 0 0 1 .54.54 1.89 1.89 0 0 1 .2.89v2.23H100V50.7a1.25 1.25 0 0 0-.28-.86 1.16 1.16 0 0 0-1.57 0 1.28 1.28 0 0 0-.29.9v2.09h-.63v-5.1h.63v1.87a1.25 1.25 0 0 1 .51-.45 1.78 1.78 0 0 1 .7-.15ZM105.05 50.81v.38h-3a1.18 1.18 0 0 0 1.23 1.18 1.17 1.17 0 0 0 .67-.18 1 1 0 0 0 .39-.51h.66a1.73 1.73 0 0 1-.61.89 1.87 1.87 0 0 1-1.13.33 2 2 0 0 1-1-.24 1.73 1.73 0 0 1-.66-.68 2.16 2.16 0 0 1-.24-1 2.19 2.19 0 0 1 .23-1 1.66 1.66 0 0 1 .66-.68 2.1 2.1 0 0 1 1.93 0 1.58 1.58 0 0 1 .63.65 1.78 1.78 0 0 1 .24.86Zm-.65-.13a1.21 1.21 0 0 0-.15-.62 1.1 1.1 0 0 0-.44-.39 1.33 1.33 0 0 0-.6-.14 1.16 1.16 0 0 0-.81.3 1.27 1.27 0 0 0-.38.85ZM109.24 52.89a2.11 2.11 0 0 1-.85-.17 1.39 1.39 0 0 1-.59-.47 1.26 1.26 0 0 1-.22-.69h.67a.86.86 0 0 0 .28.57 1 1 0 0 0 .71.23 1.09 1.09 0 0 0 .71-.22.75.75 0 0 0 .26-.58.64.64 0 0 0-.15-.45 1 1 0 0 0-.38-.26 5.75 5.75 0 0 0-.62-.2 5.8 5.8 0 0 1-.76-.24 1.31 1.31 0 0 1-.49-.39 1.2 1.2 0 0 1-.2-.72 1.25 1.25 0 0 1 .76-1.16 2 2 0 0 1 .83-.17 1.68 1.68 0 0 1 1.1.34 1.22 1.22 0 0 1 .49.9h-.69a.71.71 0 0 0-.28-.49 1 1 0 0 0-.68-.21 1 1 0 0 0-.64.21.66.66 0 0 0-.25.56.65.65 0 0 0 .14.43 1.18 1.18 0 0 0 .37.26l.61.19a5.23 5.23 0 0 1 .77.26 1.24 1.24 0 0 1 .5.39 1.2 1.2 0 0 1 .2.72 1.26 1.26 0 0 1-.18.66 1.39 1.39 0 0 1-.56.51 1.91 1.91 0 0 1-.86.19ZM113.41 52.9a2 2 0 0 1-1-.24 1.78 1.78 0 0 1-.68-.68 2.16 2.16 0 0 1-.24-1 2 2 0 0 1 .25-1 1.74 1.74 0 0 1 .69-.68 2.08 2.08 0 0 1 1.94 0 1.74 1.74 0 0 1 .69.68 2 2 0 0 1 .25 1 2.06 2.06 0 0 1-.26 1 1.76 1.76 0 0 1-.7.68 2 2 0 0 1-.94.24Zm0-.55a1.29 1.29 0 0 0 .64-.16 1.12 1.12 0 0 0 .47-.47 1.46 1.46 0 0 0 .19-.78 1.54 1.54 0 0 0-.18-.77 1.12 1.12 0 0 0-.47-.47 1.32 1.32 0 0 0-1.26 0 1.08 1.08 0 0 0-.45.47 1.54 1.54 0 0 0-.18.77 1.67 1.67 0 0 0 .17.78 1.1 1.1 0 0 0 .45.48 1.32 1.32 0 0 0 .62.15ZM115.94 50.94a2.08 2.08 0 0 1 .24-1 1.64 1.64 0 0 1 .65-.68 1.89 1.89 0 0 1 1-.24 1.83 1.83 0 0 1 1.15.34 1.61 1.61 0 0 1 .6.94h-.68a.94.94 0 0 0-.38-.55 1.15 1.15 0 0 0-.69-.2 1.13 1.13 0 0 0-.87.37 1.51 1.51 0 0 0-.33 1 1.55 1.55 0 0 0 .33 1.06 1.13 1.13 0 0 0 .87.37 1.15 1.15 0 0 0 .69-.19 1 1 0 0 0 .38-.55h.68a1.68 1.68 0 0 1-.61.93 1.82 1.82 0 0 1-1.14.34 1.89 1.89 0 0 1-1-.24 1.64 1.64 0 0 1-.65-.68 2.16 2.16 0 0 1-.24-1.02ZM120.69 48.45a.43.43 0 0 1 0-.86.36.36 0 0 1 .29.13.44.44 0 0 1 0 .6.36.36 0 0 1-.29.13Zm.3.61v3.78h-.62v-3.78ZM125.51 50.81v.38h-3a1.18 1.18 0 0 0 1.23 1.18 1.17 1.17 0 0 0 .67-.18 1 1 0 0 0 .39-.51h.68a1.73 1.73 0 0 1-.61.89 1.87 1.87 0 0 1-1.13.33 2 2 0 0 1-1-.24 1.73 1.73 0 0 1-.66-.68 2.16 2.16 0 0 1-.24-1 2.19 2.19 0 0 1 .23-1 1.66 1.66 0 0 1 .66-.68 2.1 2.1 0 0 1 1.93 0 1.58 1.58 0 0 1 .63.65 1.78 1.78 0 0 1 .22.86Zm-.65-.13a1.12 1.12 0 0 0-.16-.62 1 1 0 0 0-.43-.39 1.33 1.33 0 0 0-.6-.14 1.16 1.16 0 0 0-.81.3 1.27 1.27 0 0 0-.38.85ZM127.11 49.58v2.23a.54.54 0 0 0 .11.39.63.63 0 0 0 .41.11h.46v.53h-.56a1.13 1.13 0 0 1-.79-.24 1 1 0 0 1-.26-.79v-2.23H126v-.52h.49v-1h.63v1h1v.52ZM132.11 49.06l-2.28 5.56h-.65l.75-1.82-1.53-3.74h.7l1.19 3.06 1.17-3.06ZM137.79 49.44a1.36 1.36 0 0 1-.41 1 1.77 1.77 0 0 1-1.25.39h-.93v2h-.62V48h1.55a1.75 1.75 0 0 1 1.23.4 1.29 1.29 0 0 1 .43 1.04Zm-1.66.88a1.12 1.12 0 0 0 .77-.23.82.82 0 0 0 .25-.65c0-.59-.34-.89-1-.89h-.93v1.77ZM138.33 50.94a2.08 2.08 0 0 1 .24-1 1.75 1.75 0 0 1 .64-.68 1.8 1.8 0 0 1 .92-.24 1.69 1.69 0 0 1 .86.21 1.47 1.47 0 0 1 .54.54v-.69h.64v3.78h-.64v-.7a1.52 1.52 0 0 1-.55.55 1.71 1.71 0 0 1-.86.21 1.68 1.68 0 0 1-.91-.25 1.71 1.71 0 0 1-.64-.69 2.13 2.13 0 0 1-.24-1.04Zm3.2 0a1.47 1.47 0 0 0-.17-.74 1.15 1.15 0 0 0-.47-.48 1.17 1.17 0 0 0-.64-.18 1.28 1.28 0 0 0-.64.17 1.18 1.18 0 0 0-.46.48 1.49 1.49 0 0 0-.17.75 1.55 1.55 0 0 0 .17.76 1.18 1.18 0 0 0 1.1.65 1.21 1.21 0 0 0 1.11-.65 1.55 1.55 0 0 0 .17-.76ZM144.57 52.9a2.13 2.13 0 0 1-.78-.14 1.37 1.37 0 0 1-.55-.42 1.15 1.15 0 0 1-.22-.61h.65a.66.66 0 0 0 .26.46 1 1 0 0 0 .63.18.9.9 0 0 0 .57-.16.49.49 0 0 0 .2-.4.38.38 0 0 0-.22-.36 2.57 2.57 0 0 0-.68-.24c-.28-.08-.51-.15-.69-.22a1.38 1.38 0 0 1-.46-.34 1 1 0 0 1 0-1.13 1.27 1.27 0 0 1 .49-.38 1.81 1.81 0 0 1 .72-.14 1.58 1.58 0 0 1 1 .32 1.13 1.13 0 0 1 .41.87h-.63a.63.63 0 0 0-.24-.48 1 1 0 0 0-1.11 0 .42.42 0 0 0-.2.37.5.5 0 0 0 .11.32 1.35 1.35 0 0 0 .31.19l.51.16a3.89 3.89 0 0 1 .66.22 1.1 1.1 0 0 1 .43.31.87.87 0 0 1 .2.56.91.91 0 0 1-.18.56 1 1 0 0 1-.49.39 1.58 1.58 0 0 1-.7.11ZM148.17 52.9a2.13 2.13 0 0 1-.78-.14 1.27 1.27 0 0 1-.54-.42 1 1 0 0 1-.22-.61h.64a.64.64 0 0 0 .27.46 1 1 0 0 0 .62.18.9.9 0 0 0 .57-.16.48.48 0 0 0 .21-.4.39.39 0 0 0-.23-.36 2.57 2.57 0 0 0-.68-.24c-.28-.08-.51-.15-.69-.22a1.34 1.34 0 0 1-.45-.34.88.88 0 0 1-.19-.6.93.93 0 0 1 .17-.53 1.27 1.27 0 0 1 .49-.38 1.86 1.86 0 0 1 .73-.14 1.55 1.55 0 0 1 1 .32 1.1 1.1 0 0 1 .41.87h-.62a.7.7 0 0 0-.24-.48.89.89 0 0 0-.58-.18.87.87 0 0 0-.54.15.44.44 0 0 0-.2.37.45.45 0 0 0 .12.32 1.1 1.1 0 0 0 .3.19l.51.16a3.89 3.89 0 0 1 .66.22 1.14 1.14 0 0 1 .44.31.92.92 0 0 1 .19.56 1 1 0 0 1-.17.56 1.12 1.12 0 0 1-.49.39 1.65 1.65 0 0 1-.71.14Z" class="cls-4"/><path d="M191.53 49.12a.94.94 0 0 1 0-1.3 5.33 5.33 0 0 1 7.59 0 1 1 0 0 1 0 1.31.93.93 0 0 1-1.3 0 3.5 3.5 0 0 0-5 0 .92.92 0 0 1-1.29-.01Z" style="fill:url(#linear-gradient)"/><path d="M192.7 53.44a5.45 5.45 0 0 1-1.4-5.23.91.91 0 0 1 1.12-.66.93.93 0 0 1 .65 1.13 3.57 3.57 0 0 0 .36 2.71 3.62 3.62 0 0 0 2.15 1.66.92.92 0 0 1-.47 1.78 5.18 5.18 0 0 1-2.41-1.39Z" style="fill:url(#linear-gradient-2)"/><path d="M194.69 54.6a.89.89 0 0 1-.24-.41.92.92 0 0 1 .64-1.14 3.56 3.56 0 0 0 2.49-4.37.92.92 0 1 1 1.78-.49 5.43 5.43 0 0 1-3.79 6.64.86.86 0 0 1-.88-.23Z" style="fill:url(#linear-gradient-3)"/><path d="M205 53.85a2.79 2.79 0 0 1-1.14-.22A1.79 1.79 0 0 1 203 53a1.7 1.7 0 0 1-.31-1H204a.8.8 0 0 0 .26.59.92.92 0 0 0 .66.22 1 1 0 0 0 .67-.2.68.68 0 0 0 .24-.54.6.6 0 0 0-.16-.44 1 1 0 0 0-.42-.27 5.25 5.25 0 0 0-.68-.23 9.46 9.46 0 0 1-1-.34 1.92 1.92 0 0 1-.63-.51 1.49 1.49 0 0 1-.26-.93 1.67 1.67 0 0 1 .27-.94 1.73 1.73 0 0 1 .75-.6 2.67 2.67 0 0 1 1.12-.22 2.35 2.35 0 0 1 1.52.46 1.64 1.64 0 0 1 .65 1.27h-1.29a.65.65 0 0 0-.27-.51 1 1 0 0 0-.65-.21.85.85 0 0 0-.57.18.66.66 0 0 0-.21.53.59.59 0 0 0 .15.41 1.69 1.69 0 0 0 .41.26l.67.23a5.83 5.83 0 0 1 1 .35 1.68 1.68 0 0 1 .64.52 1.43 1.43 0 0 1 .27.91 1.71 1.71 0 0 1-.25.91 1.86 1.86 0 0 1-.74.67 2.58 2.58 0 0 1-1.15.28ZM210.4 53.87a2.53 2.53 0 0 1-1.26-.31 2.32 2.32 0 0 1-.88-.88 2.71 2.71 0 0 1-.31-1.3 2.67 2.67 0 0 1 .32-1.31 2.35 2.35 0 0 1 .9-.87 2.56 2.56 0 0 1 1.26-.31 2.5 2.5 0 0 1 1.26.31 2.26 2.26 0 0 1 .89.87 2.58 2.58 0 0 1 .33 1.31 2.43 2.43 0 0 1-.34 1.3 2.31 2.31 0 0 1-.9.88 2.57 2.57 0 0 1-1.27.31Zm0-1.06a1.29 1.29 0 0 0 .61-.16 1.12 1.12 0 0 0 .47-.49 1.55 1.55 0 0 0 .18-.78 1.39 1.39 0 0 0-.37-1.05 1.2 1.2 0 0 0-1.75 0 1.42 1.42 0 0 0-.35 1.05 1.5 1.5 0 0 0 .34 1.06 1.16 1.16 0 0 0 .87.37ZM218.32 49.59a2 2 0 0 1-.23.92 1.75 1.75 0 0 1-.73.69 2.61 2.61 0 0 1-1.23.26h-1v2.33h-1.22v-6.07h2.24a2.73 2.73 0 0 1 1.2.24 1.62 1.62 0 0 1 .74.67 1.83 1.83 0 0 1 .23.96Zm-2.24.88a1.06 1.06 0 0 0 .74-.22.86.86 0 0 0 .25-.66c0-.59-.33-.88-1-.88h-1v1.76ZM219 51.36a2.86 2.86 0 0 1 .29-1.3 2.22 2.22 0 0 1 .79-.87 2.16 2.16 0 0 1 1.12-.3 1.89 1.89 0 0 1 .94.22 1.85 1.85 0 0 1 .65.55V49H224v4.82h-1.23v-.71a1.73 1.73 0 0 1-.65.57 2 2 0 0 1-.95.22 2.08 2.08 0 0 1-1.11-.32 2.18 2.18 0 0 1-.79-.88 2.9 2.9 0 0 1-.27-1.34Zm3.79 0a1.5 1.5 0 0 0-.17-.76 1.23 1.23 0 0 0-.47-.49 1.3 1.3 0 0 0-.64-.17 1.23 1.23 0 0 0-.62.17 1.28 1.28 0 0 0-.47.48 1.49 1.49 0 0 0-.18.75 1.59 1.59 0 0 0 .18.77 1.3 1.3 0 0 0 .47.49 1.15 1.15 0 0 0 .62.18 1.3 1.3 0 0 0 .64-.17 1.23 1.23 0 0 0 .47-.49 1.52 1.52 0 0 0 .13-.74Z" class="cls-8"/><path d="M153.06 48.54v1.61h1.75v.52h-1.75v1.65h2v.52h-2.59V48H155v.51ZM155.73 50.94a2.08 2.08 0 0 1 .24-1 1.64 1.64 0 0 1 .65-.68 1.89 1.89 0 0 1 .95-.24 1.83 1.83 0 0 1 1.15.34 1.61 1.61 0 0 1 .6.94h-.68a.94.94 0 0 0-.38-.55 1.15 1.15 0 0 0-.69-.2 1.09 1.09 0 0 0-.86.37 1.47 1.47 0 0 0-.34 1 1.5 1.5 0 0 0 .34 1.06 1.09 1.09 0 0 0 .86.37 1.15 1.15 0 0 0 .69-.19 1 1 0 0 0 .38-.55h.68a1.68 1.68 0 0 1-.61.93 1.82 1.82 0 0 1-1.14.34 1.89 1.89 0 0 1-.95-.24A1.64 1.64 0 0 1 156 52a2.16 2.16 0 0 1-.27-1.06ZM161.8 52.9a2 2 0 0 1-1-.24 1.78 1.78 0 0 1-.68-.68 2.16 2.16 0 0 1-.24-1 2 2 0 0 1 .25-1 1.74 1.74 0 0 1 .69-.68 2.08 2.08 0 0 1 1.94 0 1.74 1.74 0 0 1 .69.68 2 2 0 0 1 .25 1 2.06 2.06 0 0 1-.26 1 1.76 1.76 0 0 1-.7.68 2 2 0 0 1-.94.24Zm0-.55a1.29 1.29 0 0 0 .64-.16 1.07 1.07 0 0 0 .47-.47 1.46 1.46 0 0 0 .19-.78 1.54 1.54 0 0 0-.18-.77 1.12 1.12 0 0 0-.47-.47 1.33 1.33 0 0 0-.62-.16 1.38 1.38 0 0 0-.64.16 1.08 1.08 0 0 0-.45.47 1.54 1.54 0 0 0-.18.77 1.67 1.67 0 0 0 .17.78 1.16 1.16 0 0 0 .45.48 1.32 1.32 0 0 0 .62.15ZM165.9 52.9a2.07 2.07 0 0 1-.77-.14 1.31 1.31 0 0 1-.55-.42 1.08 1.08 0 0 1-.22-.61h.64a.62.62 0 0 0 .26.46 1 1 0 0 0 .63.18.85.85 0 0 0 .56-.16.48.48 0 0 0 .21-.4.38.38 0 0 0-.22-.36 2.87 2.87 0 0 0-.68-.24c-.28-.08-.51-.15-.69-.22a1.28 1.28 0 0 1-.46-.34.93.93 0 0 1-.18-.6.86.86 0 0 1 .17-.53 1.2 1.2 0 0 1 .49-.38 1.81 1.81 0 0 1 .72-.14 1.58 1.58 0 0 1 1 .32 1.17 1.17 0 0 1 .41.87h-.63a.63.63 0 0 0-.24-.48.87.87 0 0 0-.58-.18.91.91 0 0 0-.54.15.44.44 0 0 0-.2.37.45.45 0 0 0 .12.32 1.1 1.1 0 0 0 .3.19l.51.16a3.75 3.75 0 0 1 .67.22 1.1 1.1 0 0 1 .43.31.86.86 0 0 1 .19.56.91.91 0 0 1-.17.56 1.07 1.07 0 0 1-.49.39 1.62 1.62 0 0 1-.69.14ZM171.43 49.06l-2.28 5.56h-.65l.75-1.82-1.53-3.74h.7l1.18 3.06 1.18-3.06ZM173.39 52.9a2.13 2.13 0 0 1-.78-.14 1.27 1.27 0 0 1-.54-.42 1.08 1.08 0 0 1-.22-.61h.65a.62.62 0 0 0 .26.46 1 1 0 0 0 .63.18.87.87 0 0 0 .56-.16.48.48 0 0 0 .21-.4.38.38 0 0 0-.22-.36 2.87 2.87 0 0 0-.68-.24c-.28-.08-.51-.15-.69-.22a1.28 1.28 0 0 1-.46-.34.94.94 0 0 1-.19-.6.87.87 0 0 1 .18-.53 1.2 1.2 0 0 1 .49-.38 1.81 1.81 0 0 1 .72-.14 1.53 1.53 0 0 1 1 .32 1.14 1.14 0 0 1 .42.87h-.63a.63.63 0 0 0-.24-.48.87.87 0 0 0-.58-.18.89.89 0 0 0-.54.15.44.44 0 0 0-.2.37.45.45 0 0 0 .12.32 1.1 1.1 0 0 0 .3.19l.51.16a4 4 0 0 1 .67.22 1.1 1.1 0 0 1 .43.31.86.86 0 0 1 .19.56.91.91 0 0 1-.17.56 1.07 1.07 0 0 1-.49.39 1.65 1.65 0 0 1-.71.14ZM176.42 49.58v2.23a.54.54 0 0 0 .12.39.61.61 0 0 0 .41.11h.46v.53h-.57a1.12 1.12 0 0 1-.78-.24 1 1 0 0 1-.26-.79v-2.23h-.49v-.52h.49v-1h.62v1h1v.52ZM181.62 50.81v.38h-3a1.22 1.22 0 0 0 .38.87 1.33 1.33 0 0 0 1.52.13 1.1 1.1 0 0 0 .39-.51h.67a1.65 1.65 0 0 1-.6.89 1.9 1.9 0 0 1-1.14.33 1.93 1.93 0 0 1-1-.24 1.73 1.73 0 0 1-.66-.68 2.16 2.16 0 0 1-.24-1 2.08 2.08 0 0 1 .23-1 1.6 1.6 0 0 1 .66-.68 1.94 1.94 0 0 1 1-.24 2 2 0 0 1 1 .23 1.71 1.71 0 0 1 .63.65 1.89 1.89 0 0 1 .16.87Zm-.65-.13a1.12 1.12 0 0 0-.16-.62 1 1 0 0 0-.43-.39 1.33 1.33 0 0 0-.6-.14 1.2 1.2 0 0 0-.82.3 1.32 1.32 0 0 0-.38.85ZM187 49a1.57 1.57 0 0 1 .79.19 1.28 1.28 0 0 1 .54.54 1.77 1.77 0 0 1 .2.89v2.23h-.62V50.7a1.2 1.2 0 0 0-.28-.86 1.11 1.11 0 0 0-1.53 0 1.26 1.26 0 0 0-.29.91v2.08h-.62V50.7a1.21 1.21 0 0 0-.29-.86 1 1 0 0 0-.75-.3 1 1 0 0 0-.78.31 1.31 1.31 0 0 0-.29.91v2.08h-.62v-3.78h.62v.55a1.3 1.3 0 0 1 .5-.46 1.67 1.67 0 0 1 1.54.06 1.31 1.31 0 0 1 .54.62 1.28 1.28 0 0 1 .53-.62A1.58 1.58 0 0 1 187 49Z" class="cls-4"/><path d="M55.49 33.71V11.5h7v3.22a6.37 6.37 0 0 1 2.79-2.79 10.72 10.72 0 0 1 8.23-.32 6.16 6.16 0 0 1 2.5 1.87 6.7 6.7 0 0 1 1.4 3 21.5 21.5 0 0 1 .34 4.07v13.16h-7V22.32a7.77 7.77 0 0 0-.85-3.88A3.21 3.21 0 0 0 66.84 17a3.68 3.68 0 0 0-3.23 1.51 7 7 0 0 0-1.07 4.09v11.11ZM82 24.69V11.5h7v11.39a7.77 7.77 0 0 0 .85 3.88 3.21 3.21 0 0 0 3 1.5 3.68 3.68 0 0 0 3.25-1.52 7.21 7.21 0 0 0 1-4.11V11.5h7v22.21h-7v-3.17a6.45 6.45 0 0 1-2.78 2.74 10.75 10.75 0 0 1-8.24.32 6.2 6.2 0 0 1-2.5-1.87 6.58 6.58 0 0 1-1.39-3 21.5 21.5 0 0 1-.19-4.04ZM107.67 26.29h6.91a3 3 0 0 0 1 2.52 4 4 0 0 0 2.55.76 4.13 4.13 0 0 0 2.1-.48 1.7 1.7 0 0 0 .77-1.59 1.57 1.57 0 0 0-.35-1.05 3.37 3.37 0 0 0-1.07-.74 15.2 15.2 0 0 0-1.83-.7l-2.71-.84c-.92-.27-1.79-.57-2.63-.89a9.49 9.49 0 0 1-2.19-1.18 5.11 5.11 0 0 1-1.5-1.76 5.81 5.81 0 0 1-.55-2.67 5.61 5.61 0 0 1 2.66-5.12 13.35 13.35 0 0 1 7.17-1.66 13.89 13.89 0 0 1 4.22.58 8.19 8.19 0 0 1 3 1.59 6.87 6.87 0 0 1 1.77 2.4 7.47 7.47 0 0 1 .59 2.95h-7a3 3 0 0 0-.71-2.14 2.84 2.84 0 0 0-2.19-.76 3.47 3.47 0 0 0-1.85.48 1.62 1.62 0 0 0-.79 1.49 1.43 1.43 0 0 0 .37 1 3.43 3.43 0 0 0 1.1.71c.48.2 1.07.42 1.78.65l2.43.77a28 28 0 0 1 2.76.9 9.85 9.85 0 0 1 2.26 1.2 5.33 5.33 0 0 1 1.56 1.78 5.67 5.67 0 0 1 .57 2.67 6.57 6.57 0 0 1-.79 3.35 6.29 6.29 0 0 1-2.08 2.21 9.76 9.76 0 0 1-3.22 1.28 19.24 19.24 0 0 1-3.89.37 12 12 0 0 1-7.48-2.08 7 7 0 0 1-2.74-6ZM130.11 22.59a13.63 13.63 0 0 1 .77-4.63 10.66 10.66 0 0 1 2.22-3.68 10.39 10.39 0 0 1 3.44-2.44 10.73 10.73 0 0 1 4.43-.9 7.74 7.74 0 0 1 2.11.3 8.89 8.89 0 0 1 1.95.81 8 8 0 0 1 1.6 1.19 6.45 6.45 0 0 1 1.1 1.43V11.5h7v22.21h-7v-3.13a5.61 5.61 0 0 1-1.1 1.46 7.46 7.46 0 0 1-1.6 1.14 9.36 9.36 0 0 1-1.95.79 7.74 7.74 0 0 1-2.11.3 10.75 10.75 0 0 1-4.42-.9 10.22 10.22 0 0 1-3.45-2.45 10.7 10.7 0 0 1-2.22-3.69 13.65 13.65 0 0 1-.77-4.64Zm7 0a6.25 6.25 0 0 0 .39 2.2 5.4 5.4 0 0 0 1.08 1.8 5.26 5.26 0 0 0 1.65 1.21 5.2 5.2 0 0 0 4.32 0 5.13 5.13 0 0 0 1.67-1.21 5.61 5.61 0 0 0 1.07-1.79 6 6 0 0 0 .4-2.21 5.8 5.8 0 0 0-.4-2.16 6.27 6.27 0 0 0-1.07-1.8 5 5 0 0 0-1.65-1.23 5.12 5.12 0 0 0-2.18-.45 4.94 4.94 0 0 0-3.81 1.68 6.08 6.08 0 0 0-1.08 1.8 6 6 0 0 0-.35 2.16Z" class="cls-3"/><path d="M157.4 17.08V11.5h3.47V5.24h7v6.26h5v5.58h-5v7.73a6.66 6.66 0 0 0 .22 1.92 2.42 2.42 0 0 0 .65 1.09 2.22 2.22 0 0 0 1 .53 5.09 5.09 0 0 0 1.21.14h1.34a11.61 11.61 0 0 0 1.2-.13v5.38c-.53.09-1.18.18-2 .25s-1.7.11-2.73.11a22.57 22.57 0 0 1-2.64-.17 6.22 6.22 0 0 1-2.58-.93 5.56 5.56 0 0 1-1.94-2.31 9.8 9.8 0 0 1-.76-4.27v-9.34ZM176.07 33.71V11.5h7.05v3.6a7.22 7.22 0 0 1 2.61-2.78 7.42 7.42 0 0 1 4.18-1.2 5.22 5.22 0 0 1 2.12.38v6.41c-.5-.12-.91-.2-1.25-.26a8.81 8.81 0 0 0-1.25-.07 6.4 6.4 0 0 0-4.66 1.71q-1.76 1.71-1.75 5.76v8.66ZM193.13 4.12A4.28 4.28 0 0 1 194.42 1a4.39 4.39 0 0 1 3.23-1.29A4.66 4.66 0 0 1 200.9.93a4.17 4.17 0 0 1 1 1.43 4.57 4.57 0 0 1 .35 1.76 4.43 4.43 0 0 1-1.32 3.16 4.4 4.4 0 0 1-1.45 1 4.62 4.62 0 0 1-1.8.35 4.52 4.52 0 0 1-1.78-.35 4.64 4.64 0 0 1-1.43-1 4.5 4.5 0 0 1-1-1.43 4.22 4.22 0 0 1-.34-1.73Zm1 29.59V11.5h7v22.21ZM206 43.75V11.5h7v3.17a6.22 6.22 0 0 1 1.11-1.43 7.37 7.37 0 0 1 1.62-1.19 9.32 9.32 0 0 1 2-.81 7.72 7.72 0 0 1 2.16-.3 10.57 10.57 0 0 1 4.39.9 10.35 10.35 0 0 1 3.43 2.44 10.7 10.7 0 0 1 2.23 3.72 13.19 13.19 0 0 1 .79 4.62 13.18 13.18 0 0 1-.79 4.64 10.7 10.7 0 0 1-2.22 3.69 10.24 10.24 0 0 1-3.43 2.45 10.57 10.57 0 0 1-4.39.9 7.81 7.81 0 0 1-2.15-.3 9.4 9.4 0 0 1-2-.81 7.33 7.33 0 0 1-1.57-1.19 6.13 6.13 0 0 1-1.12-1.45v13.2Zm7-21.16a6 6 0 0 0 .4 2.2 5.2 5.2 0 0 0 2.78 3 5 5 0 0 0 2.18.47 4.8 4.8 0 0 0 2.11-.47 5.35 5.35 0 0 0 1.67-1.21 5.48 5.48 0 0 0 1.09-1.79 6.37 6.37 0 0 0 0-4.39 5.63 5.63 0 0 0-1.09-1.8 5.19 5.19 0 0 0-1.67-1.21 4.93 4.93 0 0 0-2.11-.45 5.18 5.18 0 0 0-2.18.45 5.07 5.07 0 0 0-1.69 1.21 5.46 5.46 0 0 0-1.09 1.8 5.94 5.94 0 0 0-.34 2.19Z" class="cls-1"/></svg>