<svg enable-background="new 0 0 244.73 64.28" viewBox="0 0 244.73 64.28" xmlns="http://www.w3.org/2000/svg" xmlns:xlink="http://www.w3.org/1999/xlink"><linearGradient id="a" gradientUnits="userSpaceOnUse" x1="21.1236" x2="44.5683" y1="-60.3678" y2="118.1101"><stop offset="0" stop-color="#00a6d3"/><stop offset="1" stop-color="#17efff"/></linearGradient><linearGradient id="b" gradientUnits="userSpaceOnUse" x1="18.9664" x2="19.4873" y1="61.6821" y2="4.149"><stop offset="0" stop-color="#166cfe"/><stop offset="1" stop-color="#17efff"/></linearGradient><linearGradient id="c" gradientUnits="userSpaceOnUse" x1="56.1332" x2="28.5204" y1="-52.5644" y2="156.8758"><stop offset="0" stop-color="#0c66ee"/><stop offset="1" stop-color="#0fd8ff"/></linearGradient><path d="m3.06 21.49c-2.59-2.71-2.59-6.97 0-9.68 15.38-15.6 40.5-15.77 56.1-.39.13.13.26.26.39.39 2.43 2.8 2.43 6.95 0 9.75-2.69 2.63-6.99 2.63-9.68 0-10.07-10.27-26.56-10.44-36.84-.37-.13.12-.25.25-.38.38-2.68 2.59-6.95 2.56-9.59-.08z" fill="url(#a)"/><path d="m11.77 53.64c-10.13-10.21-14.1-25.02-10.42-38.92.9-3.63 4.57-5.85 8.2-4.95.04.01.09.02.13.03 3.64 1.01 5.79 4.76 4.84 8.41-1.82 6.81-.85 14.07 2.68 20.17 3.53 6.04 9.27 10.47 16 12.36 3.66.97 5.84 4.71 4.88 8.37-.97 3.66-4.71 5.84-8.37 4.88-6.82-1.75-13.02-5.33-17.94-10.35z" fill="url(#b)"/><path d="m26.58 62.28c-.86-.84-1.48-1.89-1.79-3.05-1.04-3.64 1.06-7.43 4.7-8.47.02-.01.04-.01.06-.02 14.09-3.88 22.38-18.43 18.53-32.52-1.01-3.66 1.14-7.44 4.8-8.45s7.44 1.14 8.45 4.8c5.75 21.42-6.84 43.48-28.21 49.42-2.32.72-4.86.06-6.54-1.71z" fill="url(#c)"/><path d="m103.31 56.69c-2.91.06-5.8-.5-8.48-1.64-2.56-.88-4.79-2.51-6.4-4.69-1.53-2.18-2.34-4.78-2.31-7.44h9.75c0 1.67.7 3.26 1.94 4.39 1.36 1.17 3.12 1.76 4.91 1.64 1.79.12 3.56-.41 4.99-1.49 1.18-1 1.83-2.48 1.79-4.02.06-1.21-.37-2.39-1.19-3.27-.86-.92-1.93-1.61-3.13-2.01-1.65-.69-3.34-1.26-5.06-1.71-2.53-.7-5.01-1.55-7.44-2.53-1.82-.92-3.41-2.21-4.69-3.8-1.4-2.03-2.08-4.46-1.94-6.92-.04-2.48.66-4.92 2.01-7 1.4-1.99 3.34-3.53 5.58-4.47 2.63-1.14 5.47-1.7 8.34-1.64 4.05-.21 8.05 1 11.31 3.42 2.97 2.25 4.75 5.73 4.84 9.45h-9.6c-.04-1.51-.78-2.91-2.01-3.8-1.38-1.07-3.09-1.63-4.84-1.56-1.53-.08-3.04.39-4.24 1.34-1.09 1.01-1.67 2.46-1.56 3.94-.03 1.12.37 2.21 1.12 3.05.92.79 1.95 1.44 3.05 1.94l4.99 1.71c2.55.64 5.05 1.51 7.44 2.6 1.88.87 3.52 2.2 4.76 3.87 1.42 1.96 2.13 4.35 2.01 6.77.03 2.39-.62 4.73-1.86 6.77-1.35 2.13-3.25 3.86-5.51 4.99-2.66 1.38-5.59 2.09-8.57 2.11zm40.19.15c-3.27.06-6.51-.74-9.38-2.31-2.74-1.55-5-3.81-6.55-6.55-1.56-2.98-2.36-6.31-2.31-9.68-.05-3.4.77-6.76 2.38-9.75 1.61-2.72 3.92-4.96 6.7-6.48 2.88-1.56 6.11-2.36 9.38-2.31 3.27-.07 6.51.73 9.38 2.31 2.77 1.5 5.07 3.74 6.62 6.48 1.67 2.97 2.52 6.34 2.46 9.75.08 3.4-.79 6.75-2.53 9.68-1.58 2.76-3.9 5.03-6.7 6.55-2.89 1.58-6.15 2.37-9.45 2.31zm0-7.89c1.59-.02 3.15-.42 4.54-1.19 1.52-.82 2.74-2.1 3.5-3.65.95-1.78 1.41-3.79 1.34-5.81.21-2.87-.79-5.71-2.75-7.81-3.38-3.6-9.03-3.78-12.62-.4-.14.13-.27.26-.4.4-1.89 2.15-2.83 4.96-2.61 7.81-.2 2.86.71 5.68 2.53 7.89 1.67 1.81 4.02 2.81 6.47 2.76zm58.95-23.96c-.01 2.39-.6 4.74-1.71 6.85-1.27 2.21-3.16 3.99-5.43 5.14-2.85 1.38-5.99 2.05-9.15 1.94h-7.44v17.34h-9.08v-45.19h16.67c3.07-.09 6.13.52 8.93 1.79 2.32 1.04 4.24 2.79 5.51 4.99 1.2 2.17 1.8 4.65 1.7 7.14zm-16.67 6.55c1.98.17 3.94-.42 5.51-1.64 1.29-1.3 1.97-3.08 1.86-4.91 0-4.39-2.46-6.55-7.44-6.55h-7.44v13.1zm21.73 6.62c-.05-3.35.69-6.67 2.16-9.68 1.34-2.65 3.37-4.88 5.88-6.48 2.52-1.49 5.41-2.26 8.34-2.23 2.43-.07 4.85.5 7 1.64 1.91.97 3.57 2.37 4.84 4.09v-4.9h9.01v35.87h-9.15v-5.28c-1.23 1.8-2.89 3.26-4.84 4.24-2.19 1.12-4.61 1.68-7.07 1.64-2.92 0-5.79-.82-8.26-2.38-2.53-1.6-4.56-3.87-5.88-6.55-1.47-3.12-2.16-6.54-2.03-9.98zm28.21 0c.08-1.96-.35-3.92-1.27-5.66-.8-1.52-2.01-2.78-3.5-3.65-1.45-.83-3.09-1.26-4.76-1.27-1.62.01-3.22.44-4.61 1.27-1.46.86-2.67 2.09-3.5 3.57-.93 1.71-1.39 3.64-1.34 5.58-.04 1.99.42 3.96 1.34 5.73.82 1.5 2.03 2.76 3.5 3.65 1.38.88 2.98 1.34 4.61 1.34 1.67 0 3.31-.44 4.76-1.27 1.49-.86 2.7-2.13 3.5-3.65.78-1.73 1.11-3.62.97-5.51z" fill="#001a46"/></svg>